<?xml version="1.0" encoding="UTF-8" standalone="no"?>
<svg
   viewBox="0 0 31.798931 42.489998"
   height="42.489998"
   width="31.798931"
   xml:space="preserve"
   id="svg2"
   version="1.1"
   sodipodi:docname="logo_uco_mono.svg"
   xmlns:inkscape="http://www.inkscape.org/namespaces/inkscape"
   xmlns:sodipodi="http://sodipodi.sourceforge.net/DTD/sodipodi-0.dtd"
   xmlns="http://www.w3.org/2000/svg"
   xmlns:svg="http://www.w3.org/2000/svg"
   xmlns:rdf="http://www.w3.org/1999/02/22-rdf-syntax-ns#"
   xmlns:cc="http://creativecommons.org/ns#"
   xmlns:dc="http://purl.org/dc/elements/1.1/"><sodipodi:namedview
     id="namedview1"
     pagecolor="#ffffff"
     bordercolor="#000000"
     borderopacity="0.25"
     inkscape:showpageshadow="2"
     inkscape:pageopacity="0.0"
     inkscape:pagecheckerboard="0"
     inkscape:deskcolor="#d1d1d1"><inkscape:page
       x="0"
       y="0"
       width="31.798931"
       height="42.489998"
       id="page2"
       margin="0"
       bleed="0" /></sodipodi:namedview><metadata
     id="metadata8"><rdf:RDF><cc:Work
         rdf:about=""><dc:format>image/svg+xml</dc:format><dc:type
           rdf:resource="http://purl.org/dc/dcmitype/StillImage" /></cc:Work></rdf:RDF></metadata><defs
     id="defs6" /><g
     transform="matrix(1.3333333,0,0,-1.3333333,-31.740665,56.692665)"
     id="g10"><g
       transform="scale(0.1)"
       id="g12"><path
         id="path52"
         style="fill:#21234e;fill-opacity:1;fill-rule:nonzero;stroke:none"
         d="M 465.164,266.176 410.48,228.262 c -0.718,3.465 -1.765,6.812 -3.117,10.004 l 56.828,53.226 c 0.625,-4.683 0.977,-9.457 0.977,-14.312 0,-3.235 0,-7.149 -0.004,-11.004 m 0.004,-89.77 -102.176,-54 v 38.789 c 0,10.996 7.887,24.082 17.61,29.223 l 84.566,44.691 z m -143.605,35.071 v 0 l -6.083,3.211 c -0.054,0.828 -0.125,1.656 -0.125,2.5 0,3.144 0.375,6.203 1.036,9.152 0,0.023 0.007,0.047 0.015,0.066 1.36,6.055 4.032,11.598 7.696,16.348 0.043,0.062 0.089,0.125 0.14,0.184 0.957,1.23 1.965,2.41 3.047,3.523 2.258,2.309 4.777,4.344 7.508,6.082 0.008,0 0.008,0 0.008,0 1.328,0.855 2.715,1.617 4.14,2.312 0.086,0.047 0.168,0.086 0.254,0.125 1.43,0.688 2.903,1.297 4.418,1.821 v 0 c 3.074,1.062 6.289,1.808 9.637,2.125 1.336,0.129 2.684,0.207 4.047,0.207 1.121,0 2.219,-0.067 3.308,-0.168 4.231,-0.332 8.282,-1.285 12.063,-2.777 3.066,-1.211 5.953,-2.758 8.617,-4.618 3.895,-2.722 7.289,-6.093 10.063,-9.953 0.043,-0.062 0.093,-0.125 0.136,-0.187 3.473,-4.879 5.918,-10.528 7.039,-16.641 0,-0.012 0,-0.012 0,-0.019 0.266,-1.446 0.45,-2.915 0.563,-4.411 0.074,-1.05 0.16,-2.101 0.16,-3.171 0,-0.836 -0.039,-1.661 -0.09,-2.481 l -18.871,-9.973 -22.945,-11.984 z m 30.05,-89.071 -102.175,54 v 58.703 L 334,190.418 c 9.727,-5.141 17.613,-18.227 17.613,-29.227 z m -100.488,173.703 56.941,-56.121 c -1.476,-3.168 -2.644,-6.492 -3.488,-9.957 l -55.137,40.348 c -0.003,2.41 -0.003,4.754 -0.003,6.801 0,6.465 0.601,12.781 1.687,18.929 m 22.344,48.922 47.715,-87.383 c -2.789,-2.5 -5.313,-5.269 -7.547,-8.281 l -54.571,72.352 c 3.813,8.402 8.661,16.23 14.403,23.312 m 44.765,32.692 22.821,-108.707 c -3.731,-1.168 -7.27,-2.766 -10.606,-4.672 l -36.836,99.875 c 7.524,5.515 15.793,10.07 24.621,13.504 m 39.067,7.324 c 5.652,0 11.199,-0.438 16.617,-1.277 l -9.715,-112.75 c -2.265,0.289 -4.555,0.488 -6.902,0.488 -1.617,0 -3.207,-0.102 -4.793,-0.242 l -6.852,113.148 c 3.828,0.41 7.711,0.633 11.645,0.633 m 43.679,-9.238 c 8.641,-3.836 16.676,-8.762 23.942,-14.614 l -38.981,-97.937 c -3.253,2.031 -6.738,3.722 -10.406,5.035 z m 56.446,-58.504 -55.274,-69.528 c -2.109,3.082 -4.539,5.914 -7.226,8.496 l 49.207,84.895 c 5.39,-7.301 9.863,-15.316 13.293,-23.863 M 357.289,425.195 238.055,362.168 V 169.547 l 119.234,-63.027 119.258,63.027 v 192.621 l -119.258,63.027" /></g></g></svg>
