<?xml version="1.0" encoding="UTF-8" standalone="no"?>
<svg
   viewBox="0 0 31.637066 42.147331"
   height="42.147331"
   width="31.637066"
   xml:space="preserve"
   id="svg2"
   version="1.1"
   sodipodi:docname="logo_uco.svg"
   xmlns:inkscape="http://www.inkscape.org/namespaces/inkscape"
   xmlns:sodipodi="http://sodipodi.sourceforge.net/DTD/sodipodi-0.dtd"
   xmlns="http://www.w3.org/2000/svg"
   xmlns:svg="http://www.w3.org/2000/svg"
   xmlns:rdf="http://www.w3.org/1999/02/22-rdf-syntax-ns#"
   xmlns:cc="http://creativecommons.org/ns#"
   xmlns:dc="http://purl.org/dc/elements/1.1/"><sodipodi:namedview
     id="namedview1"
     pagecolor="#ffffff"
     bordercolor="#000000"
     borderopacity="0.25"
     inkscape:showpageshadow="2"
     inkscape:pageopacity="0.0"
     inkscape:pagecheckerboard="0"
     inkscape:deskcolor="#d1d1d1"><inkscape:page
       x="0"
       y="0"
       width="31.637066"
       height="42.147331"
       id="page2"
       margin="0"
       bleed="0" /></sodipodi:namedview><metadata
     id="metadata8"><rdf:RDF><cc:Work
         rdf:about=""><dc:format>image/svg+xml</dc:format><dc:type
           rdf:resource="http://purl.org/dc/dcmitype/StillImage" /></cc:Work></rdf:RDF></metadata><defs
     id="defs6" /><g
     transform="matrix(1.3333333,0,0,-1.3333333,-31.836399,56.692665)"
     id="g10"><g
       transform="scale(0.1)"
       id="g12"><path
         id="path50"
         style="fill:#a81835;fill-opacity:1;fill-rule:nonzero;stroke:none"
         d="m 449.063,350.898 c -6.04,7.508 -12.977,14.27 -20.665,20.098 l -70.941,-177.691 91.606,157.593" /><path
         id="path52"
         style="fill:#a81835;fill-opacity:1;fill-rule:nonzero;stroke:none"
         d="m 403.105,385.625 c -8.937,3.766 -18.445,6.445 -28.347,7.902 l -17.297,-200.222 45.644,192.32" /><path
         id="path54"
         style="fill:#a81835;fill-opacity:1;fill-rule:nonzero;stroke:none"
         d="m 472.539,300.773 c -1.828,9.141 -4.73,17.887 -8.559,26.129 L 357.457,193.305 472.539,300.773" /><path
         id="path56"
         style="fill:#a81835;fill-opacity:1;fill-rule:nonzero;stroke:none"
         d="m 471.348,249.543 c 1.988,7.984 3.132,16.293 3.379,24.832 l -117.27,-81.074 113.891,56.242" /><path
         id="path58"
         style="fill:#a81835;fill-opacity:1;fill-rule:nonzero;stroke:none"
         d="m 253.082,331.277 c -4.195,-8.129 -7.469,-16.804 -9.676,-25.898 L 357.457,193.305 253.082,331.277" /><path
         id="path60"
         style="fill:#a81835;fill-opacity:1;fill-rule:nonzero;stroke:none"
         d="m 240.125,278.906 c -0.004,-0.371 -0.027,-0.742 -0.027,-1.113 0,-8.262 0.875,-16.32 2.5,-24.102 l 114.859,-60.382 -117.332,85.597" /><path
         id="path62"
         style="fill:#a81835;fill-opacity:1;fill-rule:nonzero;stroke:none"
         d="m 290.625,373.965 c -7.961,-5.516 -15.203,-11.988 -21.566,-19.25 l 88.402,-161.41 -66.836,180.66" /><path
         id="path64"
         style="fill:#a81835;fill-opacity:1;fill-rule:nonzero;stroke:none"
         d="m 345.254,394.176 c -9.988,-1.031 -19.598,-3.313 -28.684,-6.68 l 40.887,-194.187 -12.203,200.867" /><path
         id="path66"
         style="fill:#21234e;fill-opacity:1;fill-rule:nonzero;stroke:none"
         d="m 357.414,168.855 c -27.652,0 -50.152,22.434 -50.152,50.004 0,27.579 22.5,50.012 50.152,50.012 27.652,0 50.152,-22.433 50.152,-50.012 0,-27.57 -22.5,-50.004 -50.152,-50.004" /><path
         id="path68"
         style="fill:#f3b617;fill-opacity:1;fill-rule:nonzero;stroke:none"
         d="m 357.414,260.469 c 23.051,0 41.731,-18.629 41.731,-41.61 0,-22.98 -18.68,-41.605 -41.731,-41.605 -23.051,0 -41.734,18.625 -41.734,41.605 0,22.981 18.683,41.61 41.734,41.61 m 0,16.801 c -32.301,0 -58.578,-26.204 -58.578,-58.411 0,-32.207 26.277,-58.402 58.578,-58.402 32.301,0 58.578,26.195 58.578,58.402 0,32.207 -26.277,58.411 -58.578,58.411" /><path
         id="path70"
         style="fill:#21234e;fill-opacity:1;fill-rule:nonzero;stroke:none"
         d="M 357.402,425.195 238.773,362.676 V 171.609 L 357.402,109.09 476.051,171.609 V 362.676 Z M 464.727,262.922 c -0.004,-6.629 -1.34,-12.684 -2.981,-13.52 -1.641,-0.847 -2.973,-1.531 -2.973,-1.531 l -84.132,-44.328 c -6.864,-3.621 -12.891,-9.695 -17.227,-16.805 -4.34,7.11 -10.363,13.184 -17.23,16.805 l -84.133,44.328 -2.961,1.492 c -1.637,0.821 -2.969,6.86 -2.977,13.485 -0.008,5.152 -0.011,11.011 -0.011,15.523 0,59.094 48.043,107 107.312,107 59.262,0 107.313,-47.906 107.313,-107 v -15.449" /><path
         id="path72"
         style="fill:#21234e;fill-opacity:1;fill-rule:nonzero;stroke:none"
         d="m 399.145,218.859 c 0,-22.976 -18.688,-41.605 -41.731,-41.605 -23.047,0 -41.734,18.629 -41.734,41.605 0,22.981 18.687,41.61 41.734,41.61 23.043,0 41.731,-18.629 41.731,-41.61" /><path
         id="path74"
         style="fill:#ffffff;fill-opacity:1;fill-rule:nonzero;stroke:none"
         d="m 334.234,192.309 -84.132,44.336 v -58.231 l 101.652,-53.566 v 38.472 c 0,10.91 -7.844,23.895 -17.52,28.989 m 46.36,0 c -9.676,-5.094 -17.52,-18.079 -17.52,-28.989 v -38.472 l 101.653,53.566 v 58.231 l -84.133,-44.336" /></g></g></svg>
