<?xml version="1.0" encoding="UTF-8" standalone="no"?>
<svg
   xmlns:dc="http://purl.org/dc/elements/1.1/"
   xmlns:cc="http://creativecommons.org/ns#"
   xmlns:rdf="http://www.w3.org/1999/02/22-rdf-syntax-ns#"
   xmlns:svg="http://www.w3.org/2000/svg"
   xmlns="http://www.w3.org/2000/svg"
   viewBox="0 0 95.41333 56.693333"
   height="56.693333"
   width="95.41333"
   xml:space="preserve"
   id="svg2"
   version="1.1"><metadata
     id="metadata8"><rdf:RDF><cc:Work
         rdf:about=""><dc:format>image/svg+xml</dc:format><dc:type
           rdf:resource="http://purl.org/dc/dcmitype/StillImage" /></cc:Work></rdf:RDF></metadata><defs
     id="defs6" /><g
     transform="matrix(1.3333333,0,0,-1.3333333,0,56.693333)"
     id="g10"><g
       transform="scale(0.1)"
       id="g12"><path
         id="path14"
         style="fill:#21234e;fill-opacity:1;fill-rule:nonzero;stroke:none"
         d="m 420.234,19.5703 c -0.453,-2.625 -1.089,-4.8906 -1.925,-6.793 C 417.48,10.8828 416.613,9.44531 415.711,8.47266 414.809,7.5 413.75,6.75781 412.531,6.24609 410.918,5.5625 409.059,5.22656 406.953,5.22656 c -1.34,0 -2.75,0.16797 -4.223,0.50782 -0.16,2.3125 -0.234,7.09372 -0.234,14.34762 v 5.9297 c 0.981,0.1406 2.203,0.211 3.688,0.211 1.707,0 3.109,-0.1368 4.199,-0.4024 0.488,-0.1211 0.832,-0.4258 1.023,-0.9101 0.246,-0.6602 0.367,-2.3985 0.356,-5.2227 h 2.039 l -0.094,7.9961 0.094,8.0312 h -1.926 c -0.027,-2.1679 -0.137,-3.7109 -0.328,-4.6367 -0.078,-0.3633 -0.195,-0.6172 -0.344,-0.7656 -0.152,-0.1484 -0.652,-0.2305 -1.512,-0.2539 -2.257,-0.0977 -3.57,-0.1484 -3.937,-0.1484 -1.129,0 -2.215,0.0625 -3.258,0.1757 v 0.1797 l 0.094,12.1172 c 0.012,2.0469 0.066,3.9219 0.14,5.6289 1.473,0.3125 2.817,0.4688 4.04,0.4688 3.242,0 5.656,-0.4336 7.246,-1.3125 1.589,-0.875 2.91,-2.2852 3.964,-4.2344 1.051,-1.9453 1.801,-4.2188 2.254,-6.8086 0.45,-2.5898 0.676,-5.2734 0.676,-8.0469 0,-3.0429 -0.226,-5.8828 -0.676,-8.5078 m 6.844,20.2969 c -0.445,1.8516 -1.098,3.5664 -1.957,5.1445 -0.863,1.586 -1.918,2.9571 -3.168,4.1094 -1.25,1.1562 -2.723,2 -4.414,2.5195 -1.691,0.5235 -3.934,0.7852 -6.715,0.7852 -1.234,0 -2.855,-0.0391 -4.863,-0.1133 -2.816,-0.1172 -4.731,-0.1797 -5.746,-0.1797 l -8.59,0.2227 v -2.961 c 1.805,-0.3632 2.789,-0.582 2.945,-0.6562 0.297,-0.0977 0.512,-0.2422 0.641,-0.4375 0.078,-0.1172 0.144,-0.332 0.191,-0.6172 0.153,-1.0039 0.266,-3.2773 0.328,-6.832 l 0.094,-10.586 v -3.8672 -5.2929 c 0,-7.3282 -0.086,-12.62112 -0.258,-15.87894 -0.507,-0.5664 -1.058,-1.09765 -1.66,-1.60937 -0.32,-0.26953 -0.543,-0.46094 -0.664,-0.58203 V 1.28125 L 400.434,1.5 407.48,1.28125 c 3.196,0 5.922,0.54297 8.184,1.625 2.266,1.08203 4.363,2.85156 6.301,5.3125 1.937,2.45705 3.457,5.51175 4.566,9.16405 1.11,3.6445 1.664,7.7969 1.664,12.4492 0,3.6485 -0.375,6.9961 -1.117,10.0352" /><path
         id="path16"
         style="fill:#21234e;fill-opacity:1;fill-rule:nonzero;stroke:none"
         d="m 0,49.3242 v 3.0313 l 7.71484,-0.2227 3.20316,0.0742 3.2031,0.1094 0.875,0.0391 v -3.0313 c -1.7109,0 -2.7891,-0.2304 -3.2461,-0.6953 -0.2422,-0.2148 -0.3984,-0.6445 -0.4766,-1.2773 -0.2187,-1.5118 -0.3359,-4.8282 -0.3359,-9.9688 V 28.918 l 0.0273,-4.2735 c 0,-4.457 0.0313,-7.2031 0.0938,-8.25 0.1406,-2.289 0.5156,-4.1289 1.1133,-5.5312 0.6054,-1.39846 1.5234,-2.53127 2.7695,-3.39455 1.2344,-0.86328 2.8164,-1.29687 4.7305,-1.29687 2.1992,0 3.9531,0.57812 5.2539,1.73437 1.3086,1.15625 2.2383,2.66015 2.789,4.51175 0.5586,1.8476 0.8321,5.3593 0.8321,10.5468 v 7.4493 c 0,6.4218 -0.0078,10.3398 -0.0274,11.7539 -0.0429,3.0664 -0.1523,4.914 -0.3281,5.5508 -0.1094,0.3906 -0.293,0.6796 -0.5469,0.875 -0.5195,0.4179 -1.6601,0.6562 -3.4179,0.7304 v 3.0313 c 2.8632,-0.168 4.5664,-0.2578 5.1054,-0.2578 0.1446,0 0.3555,0.0117 0.6407,0.0351 l 5.2656,0.2227 v -3.0313 c -1.4688,0 -2.3985,-0.1836 -2.7735,-0.5469 C 32.2734,48.582 32.1211,48.2109 32,47.6602 31.8828,47.1133 31.7656,44.6484 31.6602,40.2734 31.543,35.8906 31.4883,32.4336 31.4883,29.9023 v -8.582 c 0,-2.1914 -0.1016,-4.4492 -0.3047,-6.789 -0.207,-2.3399 -0.625,-4.3321 -1.25,-5.98442 C 29.3125,6.89063 28.4297,5.39453 27.2891,4.05469 26.1523,2.71875 24.7969,1.70703 23.2344,1.02734 21.6641,0.34375 19.8555,0 17.7969,0 15.3945,0 13.1445,0.5 11.0586,1.5 9.54297,2.23047 8.29688,3.20703 7.33203,4.44141 6.36719,5.66797 5.63281,7.04297 5.125,8.5625 4.62109,10.082 4.3125,11.5508 4.19922,12.9609 4.12109,13.8398 4.08203,16.1992 4.08203,20.0469 l 0.02344,7.0078 v 9.2734 c 0,3.4063 -0.04297,6.4727 -0.14063,9.1992 -0.04687,1.0704 -0.14453,1.8477 -0.28515,2.336 -0.07813,0.2656 -0.27735,0.582 -0.59375,0.9531 L 0,49.3242" /><path
         id="path18"
         style="fill:#21234e;fill-opacity:1;fill-rule:nonzero;stroke:none"
         d="m 38.3711,4.38281 c 1.8672,0.14844 2.9336,0.27735 3.2031,0.40235 0.1719,0.09375 0.3242,0.25781 0.4414,0.47656 0.1172,0.21875 0.2149,0.66797 0.293,1.34766 0.0977,0.92578 0.207,3.16406 0.332,6.71872 0.0664,2.0196 0.0977,4.6485 0.0977,7.8828 v 11.7227 l -0.0977,10.6211 c -0.0117,1.7773 -0.0625,2.9336 -0.1406,3.4687 -0.0781,0.5352 -0.1953,0.9336 -0.3477,1.1836 -0.1445,0.2578 -0.3945,0.4571 -0.7421,0.6055 -0.3516,0.1445 -1.3594,0.3086 -3.0391,0.4727 v 3.0703 c 2.0078,-0.1485 3.4883,-0.2227 4.4414,-0.2227 l 3.4375,0.1094 2.1797,0.1133 c 3.2617,-6.5469 7.207,-14.0938 11.8437,-22.6367 3.3399,-6.1563 6.1055,-10.9766 8.3047,-14.4571 v 8.4375 c 0,13.0899 -0.0937,20.793 -0.2851,23.1016 -0.0625,0.9062 -0.2071,1.4883 -0.4297,1.7539 -0.3594,0.4414 -1.5938,0.6836 -3.6992,0.7305 v 3.0703 c 1.9297,-0.1485 3.6992,-0.2227 5.3164,-0.2227 1.5664,0 3.582,0.0742 6.0508,0.2227 v -3.0703 c -1.9297,-0.0704 -3.0782,-0.2891 -3.4415,-0.6524 -0.125,-0.125 -0.2109,-0.3086 -0.2578,-0.5508 -0.2382,-1.2187 -0.3945,-3.9961 -0.4648,-8.3398 -0.0742,-4.3477 -0.1055,-7.5508 -0.1055,-9.6211 0,-16.1836 0.1016,-26.00782 0.3047,-29.460944 L 71.2617,0.332031 C 69.9297,0.671875 68.5781,0.988281 67.2031,1.28125 62.0938,10.0664 54.8477,23.2578 45.4648,40.8516 V 22.6758 c 0,-3.7735 0.0469,-7.7031 0.1446,-11.793 0.0625,-2.82811 0.1562,-4.53905 0.2851,-5.14842 0.0625,-0.29297 0.1719,-0.52735 0.3164,-0.71094 0.1524,-0.1836 0.418,-0.3086 0.793,-0.38281 1.0313,-0.19532 1.7852,-0.29297 2.2578,-0.29297 0.0977,0 0.2539,0.01172 0.4766,0.03515 V 1.42578 c -3.0078,0.04688 -4.7188,0.07813 -5.125,0.07813 -1.5352,0 -3.6172,-0.07813 -6.2422,-0.22266 v 3.10156" /><path
         id="path20"
         style="fill:#21234e;fill-opacity:1;fill-rule:nonzero;stroke:none"
         d="M 94.3477,52.3555 V 49.1367 C 92.7539,49.0703 91.8008,48.9805 91.5039,48.8672 91.1992,48.7539 90.9844,48.625 90.8594,48.4648 90.7305,48.3086 90.6484,48.1055 90.6016,47.8633 90.4883,47.4492 90.4102,46.6602 90.3633,45.4883 90.332,44.8594 90.3047,43.6641 90.293,41.9141 90.2266,35.9258 90.1953,32.6992 90.1953,32.2383 v -14.711 l 0.0703,-6.6796 c 0,-2.50786 0.0821,-4.14067 0.2383,-4.89848 0.0664,-0.33594 0.1719,-0.59766 0.3203,-0.78125 0.1524,-0.17969 0.3867,-0.32813 0.711,-0.4375 0.3242,-0.10938 1.2617,-0.1875 2.8125,-0.23438 V 1.28125 C 91.7695,1.42578 89.0156,1.5 86.0898,1.5 83.5391,1.5 81.2734,1.42578 79.2813,1.28125 v 3.21484 c 1.6445,0.09375 2.5937,0.17969 2.8476,0.25391 0.3281,0.09766 0.5547,0.23047 0.6758,0.39844 0.1172,0.17187 0.1953,0.36328 0.2266,0.58594 0.0468,0.29296 0.1093,1.4375 0.1875,3.43359 0.1289,2.91793 0.1914,5.62113 0.1914,8.10153 v 15.2618 c 0,4.8398 -0.0157,7.957 -0.0469,9.3437 -0.0781,3.0898 -0.1758,5.0234 -0.2852,5.8086 -0.0468,0.3164 -0.125,0.5586 -0.2265,0.7266 -0.1055,0.1718 -0.293,0.3125 -0.5664,0.4179 -0.2813,0.1094 -1.2813,0.2149 -3.0039,0.3086 v 3.2188 c 1.9921,-0.1485 4.2773,-0.2227 6.8554,-0.2227 2.8946,0 5.6328,0.0742 8.211,0.2227" /><path
         id="path22"
         style="fill:#21234e;fill-opacity:1;fill-rule:nonzero;stroke:none"
         d="m 113.52,1.02734 c -1.344,5.10547 -2.637,9.96876 -3.868,14.56246 l -3.367,12.379 c -2.644,9.707 -4.269,15.496 -4.879,17.3593 -0.609,1.8633 -1.07,2.9258 -1.386,3.1914 -0.4731,0.3907 -1.4575,0.6094 -2.9458,0.6602 v 3.1758 c 3.7968,-0.1719 6.1098,-0.2578 6.9298,-0.2578 l 8.519,0.2578 v -3.1758 c -1.328,-0.0274 -2.293,-0.1484 -2.894,-0.3633 -0.348,-0.125 -0.59,-0.3047 -0.723,-0.5351 -0.136,-0.2305 -0.203,-0.5274 -0.203,-0.8946 0,-0.7265 0.524,-3.039 1.567,-6.9336 0.601,-2.2383 0.921,-3.4492 0.96,-3.6328 0.04,-0.1836 0.09,-0.4062 0.157,-0.6758 l 6,-22.5234 5.269,20.0781 c 0.129,0.461 0.688,2.7656 1.684,6.8985 0.711,2.9218 1.148,4.8828 1.305,5.8789 0.031,0.2929 0.05,0.5859 0.05,0.875 0,0.414 -0.047,0.7226 -0.132,0.9297 -0.09,0.2109 -0.2,0.3632 -0.344,0.457 -0.11,0.0781 -0.395,0.1328 -0.856,0.1836 -1.027,0.1445 -1.898,0.2304 -2.605,0.2578 v 3.1758 l 6.023,-0.2227 5.129,0.2227 v -3.1758 c -1.535,-0.2227 -2.43,-0.4766 -2.683,-0.7656 -0.43,-0.5157 -1.321,-3.2774 -2.684,-8.2852 l -1.684,-6.0625 -3.203,-11.7578 C 119.938,12.2813 118.094,5.1875 117.129,1.02734 h -3.609" /><path
         id="path24"
         style="fill:#21234e;fill-opacity:1;fill-rule:nonzero;stroke:none"
         d="M 136.609,1.28125 V 3.25 c 0.95,0.68359 1.723,1.39063 2.325,2.12109 0.097,1.01954 0.175,2.67579 0.238,4.96091 0.129,4.1914 0.191,7.2305 0.191,9.1289 v 16.4297 c 0,0.6328 -0.027,3.0039 -0.07,7.1172 -0.051,2.75 -0.16,4.4297 -0.336,5.0391 -0.078,0.2461 -0.195,0.4258 -0.352,0.5469 -0.429,0.2929 -1.57,0.5117 -3.417,0.6562 v 3.1016 l 5.5,-0.1836 c 1.093,-0.0196 2.136,-0.0313 3.132,-0.0313 2.168,0 4.582,0.0313 7.243,0.1094 l 4.816,0.1797 c 0.566,0 1.723,-0.0508 3.469,-0.1445 0.152,0 0.414,-0.0743 0.773,-0.2188 l 0.168,-0.4727 -0.445,-5.2617 c -0.02,-0.3633 -0.098,-2.1133 -0.242,-5.2578 h -1.848 c -0.031,2.875 -0.106,4.6406 -0.215,5.2969 -0.062,0.3398 -0.16,0.5859 -0.289,0.7305 -0.203,0.2187 -0.832,0.4101 -1.895,0.582 -1.566,0.2695 -3.101,0.4023 -4.601,0.4023 -1.41,0 -2.852,-0.082 -4.32,-0.2578 -0.223,-2.7461 -0.332,-6.2383 -0.332,-10.4765 v -7.4805 c 1.074,-0.125 2.199,-0.1836 3.371,-0.1836 0.363,0 1.672,0.0469 3.937,0.1484 0.852,0.0235 1.36,0.1055 1.504,0.25 0.156,0.1524 0.266,0.4063 0.344,0.7696 0.191,0.9257 0.305,2.4687 0.336,4.6367 h 1.922 l -0.094,-8.0313 0.094,-7.9961 h -2.043 c 0.019,2.8243 -0.102,4.5625 -0.356,5.2188 -0.191,0.4883 -0.527,0.7891 -1.019,0.9141 -1.094,0.2656 -2.493,0.4023 -4.196,0.4023 -1.539,0 -2.804,-0.0703 -3.8,-0.2188 V 10.3008 c 0,-1.73049 0.023,-3.21486 0.07,-4.45705 1.281,-0.14453 2.801,-0.21875 4.558,-0.21875 1.708,0 3.286,0.08203 4.731,0.25781 1.453,0.17188 2.34,0.41016 2.668,0.72657 0.113,0.10156 0.215,0.3164 0.312,0.66015 0.286,1.16797 0.586,3.38277 0.907,6.64067 h 1.941 C 160.941,9.09375 160.766,5.125 160.766,2.01172 l -0.309,-0.47656 c -1.012,-0.16797 -2.449,-0.25391 -4.316,-0.25391 l -3.825,0.11328 C 148.555,1.46484 145.957,1.5 144.531,1.5 c -0.375,0 -3.015,-0.07422 -7.922,-0.21875" /><path
         id="path26"
         style="fill:#21234e;fill-opacity:1;fill-rule:nonzero;stroke:none"
         d="m 165.32,49.3242 v 2.9922 c 0.364,0 1.629,-0.0469 3.797,-0.1406 1.059,-0.0547 2.567,-0.0781 4.508,-0.0781 1.66,0 3.086,0.0468 4.27,0.1484 1.964,0.1172 3.585,0.1797 4.867,0.1797 2.484,0 4.343,-0.2735 5.574,-0.8203 1.234,-0.5508 2.289,-1.6875 3.156,-3.4141 0.875,-1.7266 1.305,-3.832 1.305,-6.3164 0,-2.9414 -0.59,-5.6211 -1.777,-8.0312 -1.188,-2.4102 -3.012,-4.3204 -5.481,-5.7305 0.399,-1.0938 0.844,-2.2149 1.356,-3.3555 0.5,-1.1523 0.8,-1.8398 0.886,-2.0859 0.086,-0.2461 0.18,-0.4727 0.274,-0.6914 l 3.675,-8.5039 c 0.981,-2.2657 1.512,-3.48441 1.594,-3.65238 1.18,-2.43359 1.914,-3.87109 2.184,-4.30859 0.269,-0.4375 0.527,-0.74219 0.781,-0.91407 0.254,-0.16797 0.75,-0.26562 1.492,-0.29297 V 1.28125 c -2.437,0.09766 -4.195,0.14453 -5.289,0.14453 -1.265,0 -2.527,-0.04687 -3.777,-0.14453 -0.078,0.53516 -0.262,1.23047 -0.57,2.07813 L 183.07,16.25 c -1.457,3.6992 -2.687,6.6055 -3.703,8.7227 -0.508,1.0742 -0.996,1.875 -1.472,2.4101 l 0.261,1.2031 c 1.899,-0.0976 3.332,0.2032 4.297,0.8985 0.965,0.6914 1.777,1.9336 2.445,3.7226 0.665,1.7852 0.997,3.7891 0.997,6.0039 0,2.2383 -0.348,4.1016 -1.043,5.586 -0.696,1.4844 -1.559,2.5156 -2.59,3.0976 -0.66,0.3672 -1.852,0.5508 -3.559,0.5508 -0.762,0 -1.512,-0.0937 -2.254,-0.289 -0.047,-0.879 -0.094,-2.8477 -0.14,-5.9102 -0.098,-6.8906 -0.145,-11.4922 -0.145,-13.8047 0,-3.6484 0.024,-7.5195 0.07,-11.6094 0.067,-5.0117 0.114,-7.85934 0.145,-8.53903 0.047,-1.36719 0.137,-2.25 0.262,-2.66797 0.062,-0.19531 0.16,-0.37109 0.308,-0.52734 0.145,-0.16016 0.371,-0.28907 0.688,-0.38672 0.312,-0.09766 1.234,-0.17188 2.754,-0.21875 V 1.28125 C 177.684,1.42578 174.945,1.5 172.18,1.5 c -2.469,0 -4.758,-0.07422 -6.86,-0.21875 v 3.21094 c 1.805,0.09765 2.871,0.23047 3.2,0.40234 0.191,0.07422 0.332,0.19531 0.418,0.36719 0.089,0.16797 0.156,0.50781 0.203,1.01953 0.109,0.94922 0.191,2.38672 0.238,4.30855 L 169.57,21.25 v 13.543 l -0.093,7.6992 c -0.036,3.0469 -0.129,4.8711 -0.289,5.4805 -0.079,0.2695 -0.2,0.4726 -0.356,0.6211 -0.383,0.2929 -1.547,0.5351 -3.512,0.7304" /><path
         id="path28"
         style="fill:#21234e;fill-opacity:1;fill-rule:nonzero;stroke:none"
         d="m 222.938,38.9922 h -1.997 c -0.031,2.8242 -0.109,4.8203 -0.234,5.9883 -0.492,1.0703 -1.344,2.0195 -2.555,2.8437 -1.207,0.8281 -2.562,1.2422 -4.07,1.2422 -2.148,0 -3.812,-0.832 -4.992,-2.5 -1.176,-1.6641 -1.766,-3.6172 -1.766,-5.8594 0.016,-1.6054 0.188,-2.9101 0.52,-3.9062 0.332,-0.9961 0.808,-1.7891 1.426,-2.375 0.613,-0.582 1.523,-1.1172 2.726,-1.6016 0.918,-0.2929 2.195,-0.6601 3.828,-1.0976 1.641,-0.4375 2.703,-0.7422 3.199,-0.9141 1.278,-0.5078 2.313,-1.125 3.106,-1.8398 0.793,-0.7188 1.418,-1.5469 1.887,-2.4844 0.464,-0.9375 0.851,-2.1172 1.148,-3.5391 0.305,-1.4258 0.453,-3.0273 0.453,-4.8047 0,-3.1132 -0.418,-5.8515 -1.258,-8.21091 -0.632,-1.77734 -1.507,-3.40234 -2.632,-4.875 C 220.605,3.58594 219.445,2.48438 218.262,1.75781 216.363,0.589844 214.082,0 211.426,0 c -1.942,0 -3.672,0.285156 -5.196,0.84375 -1.519,0.5625 -3.187,1.51953 -5.007,2.88281 0.496,2.77344 0.742,6.99614 0.761,12.66794 h 1.993 c -0.032,-1.75 0.054,-3.9297 0.261,-6.53512 0.598,-1.50782 1.625,-2.83594 3.086,-3.97657 1.457,-1.14453 3.043,-1.71484 4.766,-1.71484 1.504,0 2.844,0.40234 4.027,1.21875 1.172,0.81641 2.028,1.94531 2.559,3.375 0.535,1.43748 0.797,3.06638 0.797,4.89458 0,1.5312 -0.188,2.8476 -0.563,3.9414 -0.371,1.0937 -0.949,1.9726 -1.742,2.6328 -0.789,0.6562 -2.18,1.3359 -4.176,2.039 -2.859,0.9258 -4.746,1.5977 -5.644,2.0078 -1.364,0.6329 -2.453,1.5508 -3.289,2.7422 -0.829,1.1875 -1.45,2.6328 -1.864,4.3203 -0.406,1.6954 -0.613,3.5157 -0.613,5.461 0,2.7265 0.371,5.2422 1.117,7.539 0.742,2.3008 1.719,4.0821 2.938,5.3477 1.222,1.2656 2.593,2.1719 4.129,2.7188 1.535,0.5507 3.109,0.8242 4.722,0.8242 1.676,0 3.305,-0.2305 4.875,-0.6914 1.578,-0.4649 2.938,-1.1368 4.094,-2.0118 l 0.191,-0.875 c -0.226,-1.5859 -0.386,-3.1367 -0.484,-4.6601 -0.105,-1.5156 -0.18,-3.5195 -0.226,-6" /><path
         id="path30"
         style="fill:#21234e;fill-opacity:1;fill-rule:nonzero;stroke:none"
         d="m 245.527,52.3555 v -3.2188 c -1.601,-0.0664 -2.55,-0.1562 -2.847,-0.2695 -0.301,-0.1133 -0.516,-0.2422 -0.645,-0.4024 -0.125,-0.1562 -0.215,-0.3593 -0.258,-0.6015 -0.113,-0.4141 -0.191,-1.2031 -0.242,-2.375 -0.027,-0.6289 -0.055,-1.8242 -0.066,-3.5742 -0.063,-5.9883 -0.098,-9.2149 -0.098,-9.6758 v -14.711 l 0.074,-6.6796 c 0,-2.50786 0.078,-4.14067 0.235,-4.89848 0.062,-0.33594 0.168,-0.59766 0.32,-0.78125 0.152,-0.17969 0.391,-0.32813 0.715,-0.4375 0.324,-0.10938 1.258,-0.1875 2.812,-0.23438 V 1.28125 C 242.945,1.42578 240.195,1.5 237.27,1.5 c -2.551,0 -4.817,-0.07422 -6.817,-0.21875 v 3.21484 c 1.649,0.09375 2.598,0.17969 2.852,0.25391 0.332,0.09766 0.554,0.23047 0.675,0.39844 0.122,0.17187 0.196,0.36328 0.227,0.58594 0.047,0.29296 0.113,1.4375 0.191,3.43359 0.125,2.91793 0.192,5.62113 0.192,8.10153 v 15.2618 c 0,4.8398 -0.02,7.957 -0.055,9.3437 -0.074,3.0898 -0.172,5.0234 -0.281,5.8086 -0.047,0.3164 -0.121,0.5586 -0.227,0.7266 -0.101,0.1718 -0.293,0.3125 -0.566,0.4179 -0.277,0.1094 -1.281,0.2149 -3.008,0.3086 v 3.2188 c 2,-0.1485 4.281,-0.2227 6.863,-0.2227 2.895,0 5.629,0.0742 8.211,0.2227" /><path
         id="path32"
         style="fill:#21234e;fill-opacity:1;fill-rule:nonzero;stroke:none"
         d="m 259.668,5.73438 c 1.469,-0.33985 2.883,-0.51172 4.223,-0.51172 2.109,0 3.972,0.34375 5.601,1.01953 1.203,0.51562 2.254,1.25781 3.156,2.23437 0.903,0.96875 1.766,2.41014 2.598,4.30074 0.832,1.9024 1.477,4.168 1.934,6.793 0.461,2.6289 0.691,5.4649 0.691,8.5039 0,2.7774 -0.23,5.461 -0.691,8.0508 -0.457,2.5938 -1.211,4.8633 -2.254,6.8086 -1.043,1.9492 -2.363,3.3594 -3.965,4.2344 -1.598,0.8789 -4.016,1.3164 -7.258,1.3164 -1.219,0 -2.566,-0.1602 -4.035,-0.4766 -0.156,-3.457 -0.234,-9.9609 -0.234,-19.5273 v -8.4024 c 0,-7.2539 0.078,-12.03122 0.234,-14.34372 m -9.492,-4.45313 v 1.75391 c 0.125,0.12109 0.351,0.3164 0.664,0.58203 0.605,0.51172 1.156,1.04687 1.664,1.60547 0.172,3.26172 0.258,8.55864 0.258,15.88284 v 5.9843 c 0,3.2149 -0.039,7.9219 -0.114,14.1329 -0.05,3.4296 -0.156,5.6132 -0.312,6.5703 -0.047,0.2148 -0.109,0.3867 -0.188,0.5078 -0.128,0.1953 -0.328,0.3398 -0.593,0.4375 -0.27,0.0937 -1.27,0.3203 -2.992,0.6562 v 2.9571 l 8.613,-0.2149 c 1.012,0 2.918,0.0547 5.722,0.1797 2.02,0.0703 3.645,0.1094 4.86,0.1094 2.801,0 5.047,-0.2656 6.726,-0.7852 1.688,-0.5234 3.157,-1.3633 4.407,-2.5195 1.246,-1.1563 2.3,-2.5195 3.168,-4.1055 0.859,-1.5859 1.515,-3.2851 1.957,-5.1133 0.742,-3.0664 1.113,-6.4218 1.113,-10.0703 0,-4.6562 -0.555,-8.8047 -1.66,-12.4531 -1.106,-3.6484 -2.629,-6.7031 -4.571,-9.16406 -1.933,-2.46093 -4.035,-4.22656 -6.296,-5.30859 -2.266,-1.08203 -4.993,-1.625 -8.188,-1.625 L 257.367,1.5 250.176,1.28125" /><path
         id="path34"
         style="fill:#21234e;fill-opacity:1;fill-rule:nonzero;stroke:none"
         d="m 299.203,21.0273 c 1.485,-0.0703 3.168,-0.1054 5.055,-0.1054 1.816,0 3.445,0.0351 4.887,0.1054 l -5.079,18.8399 z M 288.715,1.28125 v 3.02734 c 1.277,0.14844 2.043,0.27735 2.289,0.38282 0.242,0.11328 0.453,0.28125 0.629,0.51562 0.176,0.23047 0.351,0.59375 0.535,1.09375 0.18,0.5 0.723,2.35156 1.625,5.56642 0.41,1.5117 1.199,4.4922 2.371,8.9453 l 6.191,23.5078 2.09,8.2852 h 3.368 l 10.609,-38.1133 1.469,-4.99611 0.953,-3.35937 c 0.156,-0.4375 0.308,-0.75391 0.449,-0.94922 0.141,-0.19531 0.305,-0.33984 0.484,-0.43359 0.188,-0.10157 0.645,-0.1836 1.387,-0.26172 0.238,-0.04688 0.59,-0.11328 1.047,-0.1836 V 1.28125 L 317.617,1.5 309.289,1.28125 v 3.02734 c 1.91,0.125 2.988,0.28907 3.234,0.4961 0.25,0.20703 0.368,0.55078 0.368,1.03906 0,0.61328 -0.184,1.60547 -0.543,2.99219 l -2.043,8.03126 h -12.196 l -1.043,-4.3789 c -0.793,-3.35549 -1.187,-5.45314 -1.187,-6.27736 0,-0.58594 0.129,-1 0.383,-1.24219 0.379,-0.33984 1.508,-0.5625 3.39,-0.66016 V 1.28125 L 294.168,1.5 288.715,1.28125" /><path
         id="path36"
         style="fill:#21234e;fill-opacity:1;fill-rule:nonzero;stroke:none"
         d="m 337.949,5.73438 c 1.473,-0.33985 2.883,-0.51172 4.223,-0.51172 2.109,0 3.973,0.34375 5.601,1.01953 1.204,0.51562 2.258,1.25781 3.157,2.23437 0.902,0.96875 1.769,2.41014 2.597,4.30074 0.832,1.9024 1.477,4.168 1.938,6.793 0.457,2.6289 0.687,5.4649 0.687,8.5039 0,2.7774 -0.23,5.461 -0.687,8.0508 -0.461,2.5938 -1.211,4.8633 -2.258,6.8086 -1.039,1.9492 -2.363,3.3594 -3.965,4.2344 -1.594,0.8789 -4.012,1.3164 -7.262,1.3164 -1.214,0 -2.558,-0.1602 -4.031,-0.4766 -0.156,-3.457 -0.234,-9.9609 -0.234,-19.5273 v -8.4024 c 0,-7.2539 0.078,-12.03122 0.234,-14.34372 m -9.488,-4.45313 v 1.75391 c 0.121,0.12109 0.348,0.3164 0.66,0.58203 0.606,0.51172 1.156,1.04687 1.664,1.60547 0.172,3.26172 0.262,8.55864 0.262,15.88284 v 5.9843 c 0,3.2149 -0.043,7.9219 -0.117,14.1329 -0.051,3.4296 -0.157,5.6132 -0.309,6.5703 -0.051,0.2148 -0.113,0.3867 -0.191,0.5078 -0.129,0.1953 -0.328,0.3398 -0.594,0.4375 -0.266,0.0937 -1.266,0.3203 -2.992,0.6562 v 2.9571 l 8.617,-0.2149 c 1.012,0 2.918,0.0547 5.719,0.1797 2.023,0.0703 3.644,0.1094 4.863,0.1094 2.801,0 5.043,-0.2656 6.727,-0.7852 1.687,-0.5234 3.152,-1.3633 4.402,-2.5195 1.246,-1.1563 2.305,-2.5195 3.168,-4.1055 0.863,-1.5859 1.515,-3.2851 1.957,-5.1133 0.742,-3.0664 1.117,-6.4218 1.117,-10.0703 0,-4.6562 -0.559,-8.8047 -1.664,-12.4531 -1.105,-3.6484 -2.629,-6.7031 -4.566,-9.16406 -1.938,-2.46093 -4.039,-4.22656 -6.301,-5.30859 -2.266,-1.08203 -4.992,-1.625 -8.188,-1.625 L 335.648,1.5 328.461,1.28125" /><path
         id="path38"
         style="fill:#21234e;fill-opacity:1;fill-rule:nonzero;stroke:none"
         d="m 488.773,7.88672 -1.093,-3.6875 c -1.977,-1.60156 -3.75,-2.70313 -5.328,-3.300782 -1.571,-0.597657 -3.539,-0.89453175 -5.895,-0.89453175 -3.352,0 -6.32,0.81640675 -8.894,2.44531375 -2.032,1.3125 -3.747,3.05859 -5.149,5.21875 -1.414,2.16406 -2.496,4.51563 -3.254,7.04683 -1.156,3.8204 -1.734,7.9688 -1.734,12.4532 0,7.664 1.707,13.9258 5.113,18.7773 3.41,4.8594 8.227,7.2852 14.441,7.2852 2.133,0 4.051,-0.2422 5.754,-0.7305 1.7,-0.4883 3.672,-1.3477 5.918,-2.5937 l 0.121,-0.4766 c -0.253,-1.1367 -0.453,-2.5742 -0.597,-4.3008 -0.235,-2.7539 -0.383,-5.293 -0.449,-7.6328 h -1.848 c -0.031,2.6758 -0.113,4.8164 -0.238,6.4219 -1.059,1.707 -2.25,2.9804 -3.571,3.8164 -1.324,0.8398 -3.011,1.2578 -5.066,1.2578 -3.719,0 -6.691,-1.8047 -8.922,-5.4219 -2.23,-3.6133 -3.348,-8.6562 -3.348,-15.1289 0,-3.918 0.375,-7.3359 1.129,-10.2578 0.75,-2.918 1.754,-5.332 3,-7.2461 1.25,-1.91406 2.508,-3.30469 3.774,-4.17969 1.722,-1.16797 3.812,-1.7539 6.265,-1.7539 1.614,0 3.141,0.28125 4.578,0.83984 1.442,0.5625 3.004,1.51953 4.696,2.88672 l 0.597,-0.84375" /><path
         id="path40"
         style="fill:#21234e;fill-opacity:1;fill-rule:nonzero;stroke:none"
         d="m 508.637,55.8203 h -2.875 l 5.578,10.4063 c 0.805,1.5078 1.449,2.4882 1.933,2.9414 0.481,0.4453 1.032,0.6758 1.649,0.6758 0.824,0 1.488,-0.375 1.996,-1.1172 0.504,-0.7422 0.758,-1.6368 0.758,-2.6836 0,-0.7071 -0.145,-1.3516 -0.43,-1.9336 -0.457,-0.9024 -1.258,-1.8516 -2.394,-2.8516 z m -8.762,-27.4531 c 0,-5.668 0.508,-10.3594 1.52,-14.0703 1.015,-3.711 2.308,-6.33596 3.894,-7.87112 1.578,-1.53125 3.445,-2.29687 5.598,-2.29687 1.992,0 3.773,0.73047 5.351,2.1875 1.575,1.46093 2.809,3.92969 3.703,7.41409 0.895,3.4804 1.34,7.7031 1.34,12.6679 0,3.4063 -0.242,6.5235 -0.722,9.3438 -0.481,2.8242 -1.176,5.2305 -2.079,7.2109 -0.902,1.9805 -1.968,3.4961 -3.191,4.5469 -1.226,1.043 -2.848,1.5703 -4.875,1.5703 -2.309,0 -4.277,-0.8359 -5.898,-2.5 -1.621,-1.6719 -2.801,-4.1367 -3.536,-7.3984 -0.734,-3.2578 -1.105,-6.8633 -1.105,-10.8047 m -7.305,-2.1524 c 0,4.4532 0.438,8.3321 1.317,11.6446 0.879,3.3125 2.133,6.1211 3.758,8.4336 1.628,2.3086 3.402,3.9804 5.316,5 2.453,1.289 5.125,1.9375 8.019,1.9375 2.879,0 5.493,-0.6211 7.833,-1.8594 1.738,-0.9492 3.277,-2.3242 4.617,-4.1094 1.336,-1.7929 2.351,-3.625 3.05,-5.4961 0.696,-1.875 1.219,-3.9297 1.579,-6.1679 0.351,-2.2383 0.531,-4.711 0.531,-7.4141 0,-4.5703 -0.512,-8.8203 -1.539,-12.7422 -0.766,-2.9141 -1.875,-5.50781 -3.336,-7.76952 C 522.25,5.41016 520.586,3.66406 518.719,2.44922 516.156,0.820313 513.227,0 509.938,0 c -3.559,0 -6.614,0.992188 -9.172,2.97656 -2.551,1.98438 -4.563,4.91407 -6.016,8.78124 -1.449,3.8672 -2.18,8.6914 -2.18,14.457" /><path
         id="path42"
         style="fill:#21234e;fill-opacity:1;fill-rule:nonzero;stroke:none"
         d="m 532.434,49.3242 v 2.9922 c 0.363,0 1.629,-0.0469 3.796,-0.1406 1.059,-0.0547 2.563,-0.0781 4.512,-0.0781 1.66,0 3.082,0.0468 4.266,0.1484 1.965,0.1172 3.586,0.1797 4.867,0.1797 2.488,0 4.344,-0.2735 5.574,-0.8203 1.235,-0.5508 2.285,-1.6875 3.156,-3.4141 0.872,-1.7266 1.309,-3.832 1.309,-6.3164 0,-2.9414 -0.594,-5.6211 -1.781,-8.0312 -1.188,-2.4102 -3.012,-4.3204 -5.485,-5.7305 0.399,-1.0938 0.848,-2.2149 1.356,-3.3555 0.504,-1.1523 0.801,-1.8398 0.891,-2.0859 0.085,-0.2461 0.175,-0.4727 0.273,-0.6914 l 3.676,-8.5039 c 0.98,-2.2657 1.511,-3.48441 1.59,-3.65238 1.187,-2.43359 1.914,-3.87109 2.183,-4.30859 0.274,-0.4375 0.531,-0.74219 0.785,-0.91407 0.254,-0.16797 0.75,-0.26562 1.493,-0.29297 V 1.28125 c -2.438,0.09766 -4.2,0.14453 -5.29,0.14453 -1.265,0 -2.523,-0.04687 -3.773,-0.14453 -0.082,0.53516 -0.266,1.23047 -0.574,2.07813 L 550.184,16.25 c -1.454,3.6992 -2.692,6.6055 -3.704,8.7227 -0.507,1.0742 -0.996,1.875 -1.472,2.4101 l 0.262,1.2031 c 1.902,-0.0976 3.332,0.2032 4.296,0.8985 0.965,0.6914 1.778,1.9336 2.446,3.7226 0.664,1.7852 0.996,3.7891 0.996,6.0039 0,2.2383 -0.348,4.1016 -1.043,5.586 -0.695,1.4844 -1.563,2.5156 -2.59,3.0976 -0.664,0.3672 -1.852,0.5508 -3.555,0.5508 -0.761,0 -1.515,-0.0937 -2.257,-0.289 -0.047,-0.879 -0.094,-2.8477 -0.145,-5.9102 -0.094,-6.8906 -0.141,-11.4922 -0.141,-13.8047 0,-3.6484 0.024,-7.5195 0.071,-11.6094 0.062,-5.0117 0.113,-7.85934 0.144,-8.53903 0.047,-1.36719 0.133,-2.25 0.262,-2.66797 0.062,-0.19531 0.164,-0.37109 0.309,-0.52734 0.14,-0.16016 0.371,-0.28907 0.687,-0.38672 0.313,-0.09766 1.234,-0.17188 2.75,-0.21875 V 1.28125 C 544.797,1.42578 542.059,1.5 539.289,1.5 c -2.461,0 -4.754,-0.07422 -6.855,-0.21875 v 3.21094 c 1.804,0.09765 2.871,0.23047 3.203,0.40234 0.187,0.07422 0.324,0.19531 0.414,0.36719 0.086,0.16797 0.156,0.50781 0.203,1.01953 0.113,0.94922 0.191,2.38672 0.238,4.30855 l 0.192,10.6602 v 13.543 l -0.098,7.6992 c -0.031,3.0469 -0.125,4.8711 -0.285,5.4805 -0.078,0.2695 -0.199,0.4726 -0.36,0.6211 -0.378,0.2929 -1.546,0.5351 -3.507,0.7304" /><path
         id="path44"
         style="fill:#21234e;fill-opacity:1;fill-rule:nonzero;stroke:none"
         d="m 578.184,5.73438 c 1.468,-0.33985 2.875,-0.51172 4.222,-0.51172 2.11,0 3.973,0.34375 5.602,1.01953 1.203,0.51562 2.254,1.25781 3.156,2.23437 0.899,0.96875 1.766,2.41014 2.598,4.30074 0.832,1.9024 1.476,4.168 1.933,6.793 0.457,2.6289 0.692,5.4649 0.692,8.5039 0,2.7774 -0.235,5.461 -0.692,8.0508 -0.457,2.5938 -1.211,4.8633 -2.254,6.8086 -1.043,1.9492 -2.363,3.3594 -3.964,4.2344 -1.594,0.8789 -4.016,1.3164 -7.262,1.3164 -1.215,0 -2.563,-0.1602 -4.031,-0.4766 -0.157,-3.457 -0.235,-9.9609 -0.235,-19.5273 v -8.4024 c 0,-7.2539 0.078,-12.03122 0.235,-14.34372 m -9.493,-4.45313 v 1.75391 c 0.125,0.12109 0.352,0.3164 0.664,0.58203 0.602,0.51172 1.157,1.04687 1.665,1.60547 0.171,3.26172 0.257,8.55864 0.257,15.88284 v 5.9843 c 0,3.2149 -0.039,7.9219 -0.113,14.1329 -0.051,3.4296 -0.156,5.6132 -0.316,6.5703 -0.043,0.2148 -0.106,0.3867 -0.184,0.5078 -0.129,0.1953 -0.328,0.3398 -0.594,0.4375 -0.269,0.0937 -1.269,0.3203 -2.996,0.6562 v 2.9571 l 8.617,-0.2149 c 1.012,0 2.922,0.0547 5.719,0.1797 2.024,0.0703 3.649,0.1094 4.867,0.1094 2.797,0 5.043,-0.2656 6.723,-0.7852 1.688,-0.5234 3.152,-1.3633 4.406,-2.5195 1.246,-1.1563 2.301,-2.5195 3.164,-4.1055 0.864,-1.5859 1.52,-3.2851 1.961,-5.1133 0.742,-3.0664 1.114,-6.4218 1.114,-10.0703 0,-4.6562 -0.555,-8.8047 -1.665,-12.4531 -1.101,-3.6484 -2.625,-6.7031 -4.562,-9.16406 -1.938,-2.46093 -4.039,-4.22656 -6.301,-5.30859 -2.265,-1.08203 -4.992,-1.625 -8.187,-1.625 L 575.883,1.5 568.691,1.28125" /><path
         id="path46"
         style="fill:#21234e;fill-opacity:1;fill-rule:nonzero;stroke:none"
         d="m 615.938,28.3672 c 0,-5.668 0.503,-10.3594 1.515,-14.0703 1.016,-3.711 2.313,-6.33596 3.895,-7.87112 1.582,-1.53125 3.445,-2.29687 5.597,-2.29687 1.993,0 3.778,0.73047 5.352,2.1875 1.574,1.46093 2.812,3.92969 3.703,7.41409 0.895,3.4804 1.34,7.7031 1.34,12.6679 0,3.4063 -0.238,6.5235 -0.723,9.3438 -0.48,2.8242 -1.176,5.2305 -2.074,7.2109 -0.902,1.9805 -1.965,3.4961 -3.195,4.5469 -1.227,1.043 -2.852,1.5703 -4.875,1.5703 -2.309,0 -4.274,-0.8359 -5.899,-2.5 -1.621,-1.6719 -2.801,-4.1367 -3.531,-7.3984 -0.734,-3.2578 -1.105,-6.8633 -1.105,-10.8047 m -7.309,-2.1524 c 0,4.4532 0.437,8.3321 1.316,11.6446 0.879,3.3125 2.133,6.1211 3.762,8.4336 1.625,2.3086 3.402,3.9804 5.316,5 2.454,1.289 5.122,1.9375 8.02,1.9375 2.875,0 5.488,-0.6211 7.832,-1.8594 1.738,-0.9492 3.273,-2.3242 4.609,-4.1094 1.34,-1.7929 2.356,-3.625 3.051,-5.4961 0.699,-1.875 1.223,-3.9297 1.582,-6.1679 0.352,-2.2383 0.531,-4.711 0.531,-7.4141 0,-4.5703 -0.511,-8.8203 -1.539,-12.7422 -0.761,-2.9141 -1.875,-5.50781 -3.336,-7.76952 C 638.309,5.41016 636.645,3.66406 634.777,2.44922 632.211,0.820313 629.289,0 625.996,0 c -3.555,0 -6.613,0.992188 -9.168,2.97656 -2.555,1.98438 -4.562,4.91407 -6.015,8.78124 -1.454,3.8672 -2.184,8.6914 -2.184,14.457" /><path
         id="path48"
         style="fill:#21234e;fill-opacity:1;fill-rule:nonzero;stroke:none"
         d="m 659.434,5.37109 c 0.519,-0.17187 1.5,-0.2539 2.945,-0.2539 1.957,0 3.543,0.98828 4.754,2.97265 1.207,1.98046 1.816,4.82426 1.816,8.52346 0,2.6289 -0.316,4.7578 -0.949,6.3867 -0.637,1.6367 -1.473,2.7852 -2.52,3.4492 -1.042,0.6719 -2.48,1.0078 -4.316,1.0078 -0.648,0 -1.258,-0.0468 -1.828,-0.1484 V 10.6641 l 0.051,-4.34379 c 0,-0.12109 0.011,-0.4375 0.047,-0.94922 m -0.098,25.92191 1.379,-0.043 c 1.074,0 2.066,0.1367 2.988,0.4063 0.918,0.2656 1.66,0.7304 2.235,1.4023 0.566,0.6719 1.039,1.668 1.429,2.9922 0.391,1.332 0.586,2.8555 0.586,4.5859 0,1.75 -0.223,3.2422 -0.668,4.4688 -0.441,1.2265 -1.019,2.1093 -1.734,2.6289 -0.707,0.5273 -1.778,0.7851 -3.203,0.7851 -1.028,0 -1.957,-0.0937 -2.797,-0.289 -0.094,-1.7539 -0.153,-3.7735 -0.164,-6.0625 l -0.051,-5.6602 z M 650.344,1.28125 v 1.71484 c 0.84,0.75391 1.531,1.50782 2.09,2.26563 0.093,1.19531 0.156,2.64844 0.187,4.37891 0.067,3.55077 0.094,10.01167 0.094,19.38277 0,2.5039 -0.035,6.418 -0.113,11.7188 -0.051,4.0937 -0.137,6.4258 -0.266,7.0117 -0.078,0.3672 -0.195,0.6211 -0.356,0.7656 -0.328,0.3399 -1.519,0.6094 -3.558,0.8047 v 3.0274 c 0.351,0 0.711,-0.0118 1.094,-0.0352 l 3.269,-0.1484 c 1.074,-0.0196 2.414,-0.0313 4.016,-0.0313 1.578,0 2.82,0.0196 3.722,0.0703 2.282,0.1446 3.766,0.2188 4.461,0.2188 2.61,0 4.625,-0.4141 6.036,-1.2422 1.418,-0.8242 2.457,-2.0234 3.113,-3.5938 0.656,-1.5703 0.984,-3.3281 0.984,-5.2773 0,-2.0898 -0.379,-4.0391 -1.129,-5.8398 -0.746,-1.8047 -1.715,-3.1993 -2.883,-4.1954 -0.695,-0.6093 -2.246,-1.4257 -4.648,-2.4453 2.879,-0.5351 4.883,-1.2461 6.016,-2.1172 1.129,-0.8828 2.035,-2.246 2.715,-4.1093 0.679,-1.8594 1.023,-3.9375 1.023,-6.2266 0,-2.4062 -0.352,-4.5937 -1.043,-6.5547 -0.703,-1.95701 -1.594,-3.63279 -2.695,-5.01561 -1.102,-1.39062 -2.364,-2.48828 -3.785,-3.30468 -1.426,-0.81641 -3.208,-1.22266 -5.34,-1.22266 L 655.375,1.5 c -1.281,0 -2.957,-0.07422 -5.031,-0.21875" /><path
         id="path50"
         style="fill:#21234e;fill-opacity:1;fill-rule:nonzero;stroke:none"
         d="m 690.613,21.0273 c 1.485,-0.0703 3.168,-0.1054 5.055,-0.1054 1.816,0 3.445,0.0351 4.887,0.1054 l -5.078,18.8399 z M 680.125,1.28125 v 3.02734 c 1.277,0.14844 2.043,0.27735 2.289,0.38282 0.242,0.11328 0.453,0.28125 0.629,0.51562 0.176,0.23047 0.355,0.59375 0.535,1.09375 0.176,0.5 0.723,2.35156 1.625,5.56642 0.414,1.5117 1.199,4.4922 2.375,8.9453 l 6.192,23.5078 2.089,8.2852 h 3.364 l 10.609,-38.1133 1.469,-4.99611 0.953,-3.35937 c 0.156,-0.4375 0.309,-0.75391 0.449,-0.94922 0.141,-0.19531 0.305,-0.33984 0.485,-0.43359 0.187,-0.10157 0.644,-0.1836 1.386,-0.26172 0.242,-0.04688 0.59,-0.11328 1.047,-0.1836 V 1.28125 L 709.027,1.5 700.695,1.28125 v 3.02734 c 1.914,0.125 2.996,0.28907 3.243,0.4961 0.246,0.20703 0.363,0.55078 0.363,1.03906 0,0.61328 -0.18,1.60547 -0.543,2.99219 l -2.039,8.03126 h -12.196 l -1.046,-4.3789 c -0.793,-3.35549 -1.188,-5.45314 -1.188,-6.27736 0,-0.58594 0.129,-1 0.379,-1.24219 0.379,-0.33984 1.512,-0.5625 3.395,-0.66016 V 1.28125 L 685.578,1.5 680.125,1.28125" /><path
         id="path52"
         style="fill:#21234e;fill-opacity:1;fill-rule:nonzero;stroke:none"
         d="M 465.164,266.176 410.48,228.262 c -0.718,3.465 -1.765,6.812 -3.117,10.004 l 56.828,53.226 c 0.625,-4.683 0.977,-9.457 0.977,-14.312 0,-3.235 0,-7.149 -0.004,-11.004 m 0.004,-89.77 -102.176,-54 v 38.789 c 0,10.996 7.887,24.082 17.61,29.223 l 84.566,44.691 z m -143.605,35.071 v 0 l -6.083,3.211 c -0.054,0.828 -0.125,1.656 -0.125,2.5 0,3.144 0.375,6.203 1.036,9.152 0,0.023 0.007,0.047 0.015,0.066 1.36,6.055 4.032,11.598 7.696,16.348 0.043,0.062 0.089,0.125 0.14,0.184 0.957,1.23 1.965,2.41 3.047,3.523 2.258,2.309 4.777,4.344 7.508,6.082 0.008,0 0.008,0 0.008,0 1.328,0.855 2.715,1.617 4.14,2.312 0.086,0.047 0.168,0.086 0.254,0.125 1.43,0.688 2.903,1.297 4.418,1.821 v 0 c 3.074,1.062 6.289,1.808 9.637,2.125 1.336,0.129 2.684,0.207 4.047,0.207 1.121,0 2.219,-0.067 3.308,-0.168 4.231,-0.332 8.282,-1.285 12.063,-2.777 3.066,-1.211 5.953,-2.758 8.617,-4.618 3.895,-2.722 7.289,-6.093 10.063,-9.953 0.043,-0.062 0.093,-0.125 0.136,-0.187 3.473,-4.879 5.918,-10.528 7.039,-16.641 0,-0.012 0,-0.012 0,-0.019 0.266,-1.446 0.45,-2.915 0.563,-4.411 0.074,-1.05 0.16,-2.101 0.16,-3.171 0,-0.836 -0.039,-1.661 -0.09,-2.481 l -18.871,-9.973 -22.945,-11.984 z m 30.05,-89.071 -102.175,54 v 58.703 L 334,190.418 c 9.727,-5.141 17.613,-18.227 17.613,-29.227 z m -100.488,173.703 56.941,-56.121 c -1.476,-3.168 -2.644,-6.492 -3.488,-9.957 l -55.137,40.348 c -0.003,2.41 -0.003,4.754 -0.003,6.801 0,6.465 0.601,12.781 1.687,18.929 m 22.344,48.922 47.715,-87.383 c -2.789,-2.5 -5.313,-5.269 -7.547,-8.281 l -54.571,72.352 c 3.813,8.402 8.661,16.23 14.403,23.312 m 44.765,32.692 22.821,-108.707 c -3.731,-1.168 -7.27,-2.766 -10.606,-4.672 l -36.836,99.875 c 7.524,5.515 15.793,10.07 24.621,13.504 m 39.067,7.324 c 5.652,0 11.199,-0.438 16.617,-1.277 l -9.715,-112.75 c -2.265,0.289 -4.555,0.488 -6.902,0.488 -1.617,0 -3.207,-0.102 -4.793,-0.242 l -6.852,113.148 c 3.828,0.41 7.711,0.633 11.645,0.633 m 43.679,-9.238 c 8.641,-3.836 16.676,-8.762 23.942,-14.614 l -38.981,-97.937 c -3.253,2.031 -6.738,3.722 -10.406,5.035 z m 56.446,-58.504 -55.274,-69.528 c -2.109,3.082 -4.539,5.914 -7.226,8.496 l 49.207,84.895 c 5.39,-7.301 9.863,-15.316 13.293,-23.863 M 357.289,425.195 238.055,362.168 V 169.547 l 119.234,-63.027 119.258,63.027 v 192.621 l -119.258,63.027" /></g></g></svg>