<?xml version="1.0" encoding="UTF-8" standalone="no"?>
<svg
   xmlns:dc="http://purl.org/dc/elements/1.1/"
   xmlns:cc="http://creativecommons.org/ns#"
   xmlns:rdf="http://www.w3.org/1999/02/22-rdf-syntax-ns#"
   xmlns:svg="http://www.w3.org/2000/svg"
   xmlns="http://www.w3.org/2000/svg"
   viewBox="0 0 95.440002 56.693333"
   height="56.693333"
   width="95.440002"
   xml:space="preserve"
   id="svg2"
   version="1.1"><metadata
     id="metadata8"><rdf:RDF><cc:Work
         rdf:about=""><dc:format>image/svg+xml</dc:format><dc:type
           rdf:resource="http://purl.org/dc/dcmitype/StillImage" /></cc:Work></rdf:RDF></metadata><defs
     id="defs6" /><g
     transform="matrix(1.3333333,0,0,-1.3333333,0,56.693333)"
     id="g10"><g
       transform="scale(0.1)"
       id="g12"><path
         id="path14"
         style="fill:#21234e;fill-opacity:1;fill-rule:nonzero;stroke:none"
         d="m 0,49.1914 v 3.0234 l 7.71875,-0.2187 3.20315,0.0703 3.2031,0.1133 0.8789,0.0351 v -3.0234 c -1.707,0 -2.7891,-0.2305 -3.25,-0.6875 -0.2422,-0.2226 -0.3984,-0.6484 -0.4766,-1.2773 -0.2226,-1.5078 -0.332,-4.8164 -0.332,-9.9414 v -8.4493 l 0.0235,-4.2578 c 0,-4.4414 0.0312,-7.1875 0.0937,-8.2226 0.1445,-2.2891 0.5117,-4.125 1.1211,-5.5235 0.5977,-1.3945 1.5156,-2.5195 2.7617,-3.38278 1.2422,-0.85938 2.8164,-1.28906 4.7344,-1.28906 2.1992,0 3.9531,0.57422 5.2617,1.72656 1.3047,1.15234 2.2305,2.64848 2.7813,4.49608 0.5586,1.8438 0.832,5.3516 0.832,10.5195 v 7.4336 c 0,6.4024 -0.0039,10.3125 -0.0234,11.7227 -0.0469,3.0586 -0.1524,4.8984 -0.3321,5.5312 -0.1054,0.3907 -0.2929,0.6836 -0.5429,0.875 -0.5235,0.4141 -1.6602,0.6563 -3.4219,0.7266 v 3.0234 c 2.8672,-0.1679 4.5703,-0.2578 5.1054,-0.2578 0.1446,0 0.3594,0.0157 0.6407,0.0391 l 5.2734,0.2187 v -3.0234 c -1.4766,0 -2.4023,-0.1797 -2.7773,-0.543 C 32.2813,48.457 32.1328,48.082 32.0117,47.5391 31.8945,46.9883 31.7734,44.5313 31.668,40.1641 31.5508,35.793 31.5039,32.3438 31.5039,29.8242 v -8.5586 c 0,-2.1836 -0.1055,-4.4414 -0.3125,-6.7695 -0.207,-2.3359 -0.6211,-4.3242 -1.25,-5.97657 C 29.3164,6.86719 28.4375,5.38281 27.3008,4.04688 26.1602,2.70703 24.8086,1.70313 23.2383,1.01953 21.6758,0.34375 19.8594,0 17.8047,0 15.4023,0 13.1484,0.5 11.0625,1.49609 9.54688,2.22656 8.30078,3.19531 7.33984,4.42969 6.375,5.65234 5.63672,7.02344 5.12891,8.54297 4.62109,10.0586 4.31641,11.5195 4.20703,12.9258 4.12109,13.8008 4.08594,16.1602 4.08594,19.9922 l 0.01953,6.9883 v 9.25 c 0,3.3984 -0.04297,6.457 -0.14063,9.1758 -0.04296,1.0703 -0.14062,1.8437 -0.28515,2.332 -0.07813,0.2656 -0.27344,0.582 -0.59375,0.9453 L 0,49.1914" /><path
         id="path16"
         style="fill:#21234e;fill-opacity:1;fill-rule:nonzero;stroke:none"
         d="m 38.3867,4.37109 c 1.8672,0.14844 2.9336,0.27735 3.2031,0.40235 0.1719,0.09375 0.3204,0.2539 0.4375,0.46875 0.1211,0.22265 0.2149,0.67187 0.2969,1.35156 0.0977,0.92188 0.2071,3.15234 0.3321,6.69925 0.0625,2.0117 0.0937,4.6367 0.0937,7.8633 v 11.6875 l -0.0937,10.5976 c -0.0196,1.7695 -0.0586,2.9258 -0.1407,3.457 -0.0781,0.5352 -0.1953,0.9297 -0.3437,1.1836 -0.1524,0.2539 -0.3985,0.4571 -0.75,0.6016 -0.3477,0.1445 -1.3594,0.3047 -3.0352,0.4727 v 3.0585 c 2.0078,-0.1484 3.4883,-0.2226 4.4336,-0.2226 l 3.4453,0.1172 2.1797,0.1054 c 3.2656,-6.5312 7.211,-14.0507 11.8477,-22.5742 3.3398,-6.1445 6.1093,-10.9492 8.3086,-14.4218 v 8.414 c 0,13.0586 -0.0899,20.7422 -0.2852,23.0508 -0.0664,0.8945 -0.2031,1.4727 -0.4258,1.7461 -0.3633,0.4375 -1.6015,0.6797 -3.7031,0.7266 v 3.0585 c 1.9297,-0.1484 3.7031,-0.2226 5.3164,-0.2226 1.5703,0 3.582,0.0742 6.0547,0.2226 v -3.0585 c -1.9375,-0.0743 -3.082,-0.2891 -3.4453,-0.6524 -0.125,-0.125 -0.2149,-0.3086 -0.2578,-0.5508 -0.2383,-1.2109 -0.3946,-3.9883 -0.4649,-8.3164 -0.0703,-4.3359 -0.1054,-7.5312 -0.1054,-9.5976 0,-16.1368 0.1015,-25.93754 0.3086,-29.38285 L 71.2852,0.332031 C 69.957,0.667969 68.6016,0.984375 67.2227,1.27734 62.1133,10.0391 54.8633,23.1953 45.4844,40.7422 V 22.6133 c 0,-3.7617 0.0429,-7.6836 0.1406,-11.7617 0.0625,-2.81644 0.1563,-4.52347 0.2852,-5.13285 0.0625,-0.28906 0.164,-0.52344 0.3203,-0.70703 0.1523,-0.18359 0.4179,-0.31641 0.7929,-0.38672 1.0274,-0.19141 1.7813,-0.28906 2.2539,-0.28906 0.0977,0 0.254,0.01172 0.4766,0.03515 V 1.42188 c -3.0078,0.05078 -4.7148,0.07421 -5.1289,0.07421 -1.5352,0 -3.6133,-0.07421 -6.2383,-0.21875 v 3.09375" /><path
         id="path18"
         style="fill:#21234e;fill-opacity:1;fill-rule:nonzero;stroke:none"
         d="M 94.3789,52.2148 V 49.0117 C 92.7813,48.9375 91.832,48.8477 91.5273,48.7383 91.2305,48.625 91.0156,48.4961 90.8906,48.3398 90.7617,48.1797 90.6758,47.9805 90.6289,47.7344 90.5156,47.3242 90.4375,46.5352 90.3906,45.3672 90.3594,44.7383 90.3359,43.5469 90.3203,41.8008 90.2539,35.8281 90.2227,32.6133 90.2227,32.1523 V 17.4805 l 0.0703,-6.6641 c 0,-2.49609 0.082,-4.1289 0.2422,-4.8789 C 90.5977,5.59766 90.7031,5.33984 90.8555,5.15625 91,4.97266 91.2422,4.82422 91.5625,4.71875 91.8906,4.60938 92.8242,4.52734 94.3789,4.48047 V 1.27734 c -2.582,0.14063 -5.332,0.21875 -8.2617,0.21875 -2.5469,0 -4.8164,-0.07812 -6.8125,-0.21875 v 3.20313 c 1.6484,0.09375 2.5976,0.18359 2.8476,0.25781 0.3321,0.09375 0.5586,0.22656 0.6758,0.39844 0.1211,0.16797 0.1953,0.36328 0.2266,0.58203 0.0508,0.29297 0.1094,1.43359 0.1914,3.42578 0.1289,2.90627 0.1914,5.60547 0.1914,8.07817 v 15.2187 c 0,4.832 -0.0195,7.9414 -0.0508,9.3203 -0.0781,3.086 -0.1719,5.0156 -0.2812,5.7891 -0.0508,0.3203 -0.125,0.5625 -0.2266,0.7305 -0.1055,0.1718 -0.293,0.3125 -0.5664,0.4218 -0.2812,0.1055 -1.2812,0.2071 -3.0078,0.3086 v 3.2031 c 1.9961,-0.1445 4.2773,-0.2226 6.8594,-0.2226 2.8945,0 5.6328,0.0781 8.2148,0.2226" /><path
         id="path20"
         style="fill:#21234e;fill-opacity:1;fill-rule:nonzero;stroke:none"
         d="m 113.555,1.01953 c -1.34,5.10156 -2.637,9.94527 -3.867,14.53127 l -3.372,12.3398 c -2.644,9.6875 -4.265,15.4571 -4.875,17.3164 -0.613,1.8555 -1.074,2.918 -1.394,3.1836 -0.4689,0.3867 -1.4493,0.6094 -2.9376,0.6563 v 3.1679 c 3.7966,-0.1679 6.1096,-0.2578 6.9296,-0.2578 l 8.524,0.2578 v -3.1679 c -1.333,-0.0235 -2.297,-0.1485 -2.895,-0.3633 -0.352,-0.125 -0.59,-0.2969 -0.727,-0.5313 -0.132,-0.2304 -0.203,-0.5234 -0.203,-0.8906 0,-0.7265 0.52,-3.0312 1.571,-6.9179 0.597,-2.2305 0.921,-3.4415 0.957,-3.625 0.039,-0.1797 0.097,-0.4024 0.156,-0.6719 l 6.004,-22.4649 5.269,20.0313 c 0.125,0.457 0.692,2.75 1.688,6.8789 0.711,2.9101 1.144,4.8633 1.301,5.8633 0.039,0.289 0.054,0.5781 0.054,0.8711 0,0.4101 -0.047,0.7226 -0.133,0.9257 -0.089,0.211 -0.203,0.3594 -0.343,0.4571 -0.11,0.0742 -0.399,0.1328 -0.86,0.1836 -1.023,0.1445 -1.898,0.2304 -2.609,0.2539 v 3.1679 l 6.035,-0.2187 5.121,0.2187 v -3.1679 c -1.535,-0.2227 -2.426,-0.4727 -2.679,-0.7656 -0.43,-0.5118 -1.325,-3.2618 -2.684,-8.2618 l -1.688,-6.0468 -3.203,-11.7266 c -2.718,-10 -4.562,-17.07422 -5.527,-21.22657 h -3.613" /><path
         id="path22"
         style="fill:#21234e;fill-opacity:1;fill-rule:nonzero;stroke:none"
         d="m 136.652,1.27734 v 1.96875 c 0.946,0.67579 1.727,1.38282 2.328,2.10938 0.094,1.02344 0.176,2.67187 0.239,4.94923 0.121,4.1758 0.191,7.2109 0.191,9.1016 V 35.793 c 0,0.6328 -0.027,3 -0.074,7.1015 -0.047,2.7422 -0.156,4.418 -0.332,5.0235 -0.078,0.2422 -0.199,0.4258 -0.356,0.5468 -0.425,0.2891 -1.566,0.5079 -3.418,0.6563 v 3.0937 l 5.508,-0.1796 c 1.086,-0.0313 2.133,-0.043 3.129,-0.043 2.168,0 4.586,0.043 7.242,0.1133 l 4.817,0.1836 c 0.57,0 1.722,-0.0547 3.465,-0.1485 0.16,0 0.422,-0.0703 0.785,-0.2148 l 0.164,-0.4766 -0.449,-5.2422 c -0.016,-0.3672 -0.098,-2.1093 -0.243,-5.2422 h -1.847 c -0.031,2.8672 -0.106,4.625 -0.211,5.2813 -0.063,0.3359 -0.16,0.582 -0.285,0.7266 -0.207,0.2148 -0.84,0.414 -1.899,0.582 -1.57,0.2695 -3.105,0.3984 -4.605,0.3984 -1.41,0 -2.852,-0.082 -4.321,-0.2539 -0.222,-2.7422 -0.332,-6.2226 -0.332,-10.4453 v -7.4648 c 1.075,-0.125 2.2,-0.1836 3.372,-0.1836 0.363,0 1.675,0.0468 3.937,0.1484 0.856,0.0156 1.363,0.1055 1.508,0.2461 0.152,0.1484 0.265,0.4023 0.344,0.7695 0.191,0.9219 0.296,2.4649 0.332,4.625 h 1.925 l -0.097,-8.0117 0.097,-7.9765 h -2.043 c 0.016,2.8164 -0.101,4.5546 -0.355,5.207 -0.191,0.4883 -0.531,0.789 -1.023,0.918 -1.09,0.2617 -2.489,0.3945 -4.2,0.3945 -1.531,0 -2.8,-0.0703 -3.797,-0.2188 V 10.2695 c 0,-1.72262 0.024,-3.20309 0.071,-4.44528 1.281,-0.14063 2.801,-0.21094 4.558,-0.21094 1.703,0 3.286,0.08203 4.731,0.25 1.453,0.17188 2.34,0.41406 2.672,0.73047 0.113,0.09766 0.215,0.32031 0.312,0.65625 0.285,1.16406 0.586,3.375 0.899,6.6211 h 1.945 c -0.348,-4.80469 -0.52,-8.76172 -0.52,-11.86719 l -0.308,-0.47266 c -1.012,-0.17187 -2.453,-0.25391 -4.32,-0.25391 l -3.821,0.10938 c -3.765,0.07422 -6.363,0.10937 -7.785,0.10937 -0.383,0 -3.019,-0.07421 -7.93,-0.21875" /><path
         id="path24"
         style="fill:#21234e;fill-opacity:1;fill-rule:nonzero;stroke:none"
         d="m 165.371,49.1914 v 2.9883 c 0.367,0 1.633,-0.0547 3.801,-0.1484 1.062,-0.0469 2.562,-0.0743 4.512,-0.0743 1.664,0 3.082,0.0508 4.269,0.1485 1.965,0.1211 3.586,0.1836 4.867,0.1836 2.485,0 4.344,-0.2735 5.578,-0.8164 1.235,-0.5508 2.286,-1.6875 3.153,-3.4063 0.875,-1.7266 1.308,-3.8203 1.308,-6.3008 0,-2.9375 -0.589,-5.6093 -1.777,-8.0117 -1.191,-2.4023 -3.019,-4.3086 -5.484,-5.7148 0.394,-1.0938 0.843,-2.211 1.351,-3.3477 0.508,-1.1445 0.801,-1.8359 0.891,-2.0781 0.09,-0.2422 0.176,-0.4727 0.273,-0.6914 l 3.68,-8.4844 c 0.98,-2.2617 1.512,-3.46875 1.59,-3.64062 C 194.57,7.375 195.301,5.9375 195.566,5.5 c 0.27,-0.4375 0.528,-0.74219 0.782,-0.91016 0.254,-0.17187 0.757,-0.26562 1.496,-0.28906 V 1.27734 c -2.438,0.09375 -4.203,0.14454 -5.289,0.14454 -1.27,0 -2.528,-0.05079 -3.778,-0.14454 -0.078,0.53907 -0.269,1.22657 -0.566,2.07422 L 183.129,16.207 c -1.453,3.6875 -2.691,6.586 -3.703,8.7032 -0.508,1.0703 -1,1.8671 -1.473,2.3945 l 0.262,1.207 c 1.898,-0.0976 3.332,0.1992 4.301,0.8906 0.961,0.6915 1.777,1.9297 2.441,3.7149 0.664,1.7851 0.996,3.7812 0.996,5.9883 0,2.2343 -0.348,4.0898 -1.043,5.5703 -0.695,1.4844 -1.562,2.5156 -2.586,3.0937 -0.668,0.3672 -1.855,0.5508 -3.562,0.5508 -0.758,0 -1.516,-0.0976 -2.254,-0.293 -0.047,-0.875 -0.098,-2.8398 -0.145,-5.8984 -0.093,-6.8672 -0.144,-11.457 -0.144,-13.7656 0,-3.6367 0.027,-7.5 0.07,-11.5781 0.063,-4.9961 0.109,-7.83989 0.145,-8.51567 0.05,-1.36328 0.132,-2.24609 0.261,-2.65625 0.063,-0.19531 0.168,-0.375 0.313,-0.53125 0.137,-0.15625 0.367,-0.28515 0.683,-0.38672 0.317,-0.09375 1.239,-0.16406 2.754,-0.21484 V 1.27734 c -2.703,0.14454 -5.441,0.21875 -8.211,0.21875 -2.472,0 -4.754,-0.07421 -6.863,-0.21875 v 3.20313 c 1.805,0.09375 2.871,0.23437 3.203,0.39844 0.192,0.07422 0.332,0.1914 0.418,0.36718 0.09,0.17188 0.156,0.50782 0.203,1.01954 0.11,0.94531 0.192,2.375 0.235,4.30077 l 0.195,10.6289 v 13.5039 l -0.098,7.6836 c -0.035,3.0352 -0.129,4.8555 -0.285,5.461 -0.078,0.2695 -0.199,0.4765 -0.355,0.621 -0.383,0.2891 -1.551,0.5313 -3.516,0.7266" /><path
         id="path26"
         style="fill:#21234e;fill-opacity:1;fill-rule:nonzero;stroke:none"
         d="m 223.008,38.8906 h -1.996 c -0.032,2.8125 -0.114,4.8047 -0.235,5.9688 -0.492,1.0664 -1.343,2.0156 -2.554,2.8398 -1.211,0.8242 -2.567,1.2383 -4.075,1.2383 -2.148,0 -3.812,-0.832 -4.992,-2.4922 -1.179,-1.664 -1.765,-3.6094 -1.765,-5.8437 0.011,-1.6055 0.183,-2.9024 0.519,-3.8946 0.332,-1 0.809,-1.789 1.422,-2.3711 0.617,-0.582 1.527,-1.1171 2.734,-1.5976 0.918,-0.2891 2.192,-0.6563 3.832,-1.0938 1.637,-0.4375 2.7,-0.7422 3.192,-0.9101 1.281,-0.5078 2.316,-1.125 3.105,-1.836 0.793,-0.7226 1.426,-1.5468 1.891,-2.4804 0.465,-0.9336 0.852,-2.1094 1.148,-3.5313 0.305,-1.4219 0.45,-3.0156 0.45,-4.789 0,-3.1055 -0.418,-5.8399 -1.254,-8.18754 -0.633,-1.77344 -1.512,-3.39453 -2.633,-4.86328 -1.125,-1.47266 -2.281,-2.56641 -3.469,-3.29297 -1.894,-1.167972 -4.18,-1.75000375 -6.836,-1.75000375 -1.945,0 -3.676,0.27734375 -5.195,0.83593775 -1.52,0.558596 -3.192,1.515626 -5.008,2.878906 0.488,2.76563 0.738,6.97265 0.758,12.62895 h 1.992 c -0.031,-1.7422 0.059,-3.9141 0.262,-6.51176 0.601,-1.51172 1.629,-2.82422 3.09,-3.96875 1.453,-1.14453 3.043,-1.71485 4.769,-1.71485 1.5,0 2.844,0.40625 4.024,1.21875 1.175,0.8125 2.027,1.9375 2.562,3.3711 0.527,1.42971 0.793,3.05471 0.793,4.87891 0,1.5273 -0.184,2.8398 -0.559,3.9297 -0.371,1.0937 -0.949,1.9726 -1.742,2.625 -0.789,0.6562 -2.183,1.3359 -4.175,2.039 -2.868,0.918 -4.75,1.5899 -5.653,2 -1.359,0.6329 -2.453,1.543 -3.289,2.7305 -0.824,1.1914 -1.449,2.6289 -1.859,4.3164 -0.414,1.6875 -0.617,3.5 -0.617,5.4453 0,2.7188 0.367,5.2227 1.113,7.5157 0.746,2.2929 1.726,4.0703 2.941,5.332 1.223,1.2656 2.598,2.1719 4.133,2.7148 1.535,0.543 3.113,0.8203 4.727,0.8203 1.675,0 3.3,-0.2304 4.875,-0.6875 1.574,-0.4648 2.937,-1.1367 4.093,-2.0078 l 0.192,-0.8711 c -0.227,-1.5781 -0.387,-3.1289 -0.489,-4.6445 -0.101,-1.5156 -0.175,-3.5117 -0.222,-5.9883" /><path
         id="path28"
         style="fill:#21234e;fill-opacity:1;fill-rule:nonzero;stroke:none"
         d="m 245.602,52.2148 v -3.2031 c -1.598,-0.0742 -2.547,-0.164 -2.848,-0.2734 -0.297,-0.1133 -0.512,-0.2422 -0.641,-0.3985 -0.125,-0.1601 -0.211,-0.3593 -0.261,-0.6054 -0.114,-0.4102 -0.192,-1.1992 -0.239,-2.3672 -0.031,-0.6289 -0.054,-1.8203 -0.07,-3.5664 -0.063,-5.9727 -0.098,-9.1875 -0.098,-9.6485 V 17.4805 l 0.075,-6.6641 c 0,-2.49609 0.078,-4.1289 0.238,-4.8789 0.062,-0.33984 0.172,-0.59766 0.32,-0.78125 0.149,-0.18359 0.391,-0.33203 0.711,-0.4375 0.324,-0.10937 1.262,-0.19141 2.813,-0.23828 V 1.27734 c -2.579,0.14063 -5.332,0.21875 -8.262,0.21875 -2.547,0 -4.817,-0.07812 -6.813,-0.21875 v 3.20313 c 1.649,0.09375 2.598,0.18359 2.848,0.25781 0.336,0.09375 0.559,0.22656 0.68,0.39844 0.121,0.16797 0.191,0.36328 0.222,0.58203 0.051,0.29297 0.114,1.43359 0.192,3.42578 0.129,2.90627 0.191,5.60547 0.191,8.07817 v 15.2187 c 0,4.832 -0.019,7.9414 -0.047,9.3203 -0.082,3.086 -0.175,5.0156 -0.285,5.7891 -0.051,0.3203 -0.121,0.5625 -0.226,0.7305 -0.102,0.1718 -0.293,0.3125 -0.567,0.4218 -0.277,0.1055 -1.281,0.2071 -3.008,0.3086 v 3.2031 c 1.996,-0.1445 4.278,-0.2226 6.86,-0.2226 2.894,0 5.636,0.0781 8.215,0.2226" /><path
         id="path30"
         style="fill:#21234e;fill-opacity:1;fill-rule:nonzero;stroke:none"
         d="m 250.254,1.27734 v 1.75 c 0.125,0.11719 0.348,0.3125 0.664,0.57813 0.602,0.51172 1.16,1.04687 1.66,1.60547 0.176,3.2539 0.266,8.52736 0.266,15.83986 v 5.9687 c 0,3.2032 -0.043,7.8985 -0.121,14.0938 -0.047,3.418 -0.153,5.5976 -0.309,6.5508 -0.047,0.2187 -0.105,0.3867 -0.187,0.5117 -0.129,0.1914 -0.325,0.3359 -0.59,0.4336 -0.274,0.0937 -1.27,0.3164 -2.996,0.6562 v 2.9492 l 8.621,-0.2226 c 1.008,0 2.914,0.0664 5.718,0.1836 2.024,0.0781 3.641,0.1133 4.868,0.1133 2.797,0 5.043,-0.2657 6.726,-0.7852 1.684,-0.5234 3.149,-1.3555 4.406,-2.5117 1.247,-1.1524 2.301,-2.5156 3.165,-4.0977 0.863,-1.5742 1.515,-3.2734 1.96,-5.0976 0.739,-3.0586 1.114,-6.4063 1.114,-10.043 0,-4.6406 -0.555,-8.7773 -1.664,-12.418 -1.106,-3.6445 -2.629,-6.6875 -4.571,-9.14449 -1.933,-2.44922 -4.035,-4.21485 -6.3,-5.29297 -2.258,-1.08203 -4.993,-1.6211 -8.192,-1.6211 l -7.047,0.21875 z m 9.496,4.44141 c 1.469,-0.33594 2.879,-0.50781 4.227,-0.50781 2.097,0 3.972,0.33594 5.601,1.01953 1.199,0.51172 2.254,1.25 3.156,2.21875 0.903,0.97266 1.766,2.41018 2.598,4.29688 0.832,1.8945 1.481,4.1523 1.938,6.7734 0.453,2.6211 0.687,5.4532 0.687,8.4805 0,2.7695 -0.234,5.4414 -0.687,8.0352 -0.457,2.582 -1.215,4.8437 -2.254,6.7851 -1.051,1.9414 -2.368,3.3516 -3.965,4.2227 -1.602,0.875 -4.024,1.3125 -7.266,1.3125 -1.215,0 -2.566,-0.1602 -4.035,-0.4727 -0.16,-3.4492 -0.238,-9.9414 -0.238,-19.4805 v -8.375 c 0,-7.2304 0.078,-11.99996 0.238,-14.30855" /><path
         id="path32"
         style="fill:#21234e;fill-opacity:1;fill-rule:nonzero;stroke:none"
         d="m 288.805,1.27734 v 3.02344 c 1.281,0.14453 2.043,0.26953 2.289,0.37891 0.25,0.10937 0.453,0.28125 0.625,0.51562 0.176,0.23047 0.355,0.58985 0.535,1.08594 0.184,0.49609 0.73,2.35156 1.629,5.55465 0.41,1.5039 1.199,4.4766 2.375,8.9219 l 6.195,23.4492 2.086,8.2578 h 3.371 l 10.613,-38.0078 1.469,-4.98825 0.953,-3.35156 c 0.157,-0.4336 0.305,-0.75 0.45,-0.94531 0.14,-0.19141 0.304,-0.33985 0.488,-0.4336 0.18,-0.10156 0.64,-0.18359 1.387,-0.2539 0.234,-0.05079 0.585,-0.11329 1.043,-0.1836 V 1.27734 l -6.598,0.21485 -8.332,-0.21485 v 3.02344 c 1.914,0.1211 2.996,0.28516 3.242,0.48828 0.242,0.21094 0.367,0.55469 0.367,1.03516 0,0.61328 -0.187,1.60937 -0.547,2.98828 l -2.043,8.0117 h -12.199 l -1.047,-4.3672 c -0.789,-3.35153 -1.183,-5.43747 -1.183,-6.26559 0,-0.58203 0.125,-0.9961 0.379,-1.23828 0.382,-0.33594 1.511,-0.5586 3.394,-0.65235 V 1.27734 l -5.484,0.21485 z m 10.488,19.69926 c 1.488,-0.0743 3.172,-0.1094 5.059,-0.1094 1.816,0 3.449,0.0351 4.886,0.1094 l -5.078,18.789 -4.867,-18.789" /><path
         id="path34"
         style="fill:#21234e;fill-opacity:1;fill-rule:nonzero;stroke:none"
         d="m 328.563,1.27734 v 1.75 c 0.125,0.11719 0.347,0.3125 0.664,0.57813 0.597,0.51172 1.16,1.04687 1.66,1.60547 0.176,3.2539 0.261,8.52736 0.261,15.83986 v 5.9687 c 0,3.2032 -0.043,7.8985 -0.117,14.0938 -0.047,3.418 -0.156,5.5976 -0.308,6.5508 -0.051,0.2187 -0.11,0.3867 -0.192,0.5117 -0.125,0.1914 -0.324,0.3359 -0.59,0.4336 -0.269,0.0937 -1.265,0.3164 -2.992,0.6562 v 2.9492 l 8.617,-0.2226 c 1.012,0 2.918,0.0664 5.719,0.1836 2.031,0.0781 3.645,0.1133 4.867,0.1133 2.801,0 5.043,-0.2657 6.727,-0.7852 1.687,-0.5234 3.152,-1.3555 4.406,-2.5117 1.25,-1.1524 2.305,-2.5156 3.164,-4.0977 0.867,-1.5742 1.52,-3.2734 1.961,-5.0976 0.742,-3.0586 1.113,-6.4063 1.113,-10.043 0,-4.6406 -0.554,-8.7773 -1.66,-12.418 -1.105,-3.6445 -2.629,-6.6875 -4.57,-9.14449 -1.934,-2.44922 -4.035,-4.21485 -6.301,-5.29297 -2.262,-1.08203 -4.988,-1.6211 -8.191,-1.6211 l -7.047,0.21875 z m 9.492,4.44141 c 1.472,-0.33594 2.879,-0.50781 4.226,-0.50781 2.102,0 3.973,0.33594 5.606,1.01953 1.195,0.51172 2.25,1.25 3.156,2.21875 0.902,0.97266 1.766,2.41018 2.598,4.29688 0.828,1.8945 1.476,4.1523 1.933,6.7734 0.457,2.6211 0.688,5.4532 0.688,8.4805 0,2.7695 -0.231,5.4414 -0.688,8.0352 -0.457,2.582 -1.211,4.8437 -2.254,6.7851 -1.047,1.9414 -2.367,3.3516 -3.965,4.2227 -1.601,0.875 -4.019,1.3125 -7.265,1.3125 -1.215,0 -2.563,-0.1602 -4.035,-0.4727 -0.157,-3.4492 -0.235,-9.9414 -0.235,-19.4805 v -8.375 c 0,-7.2304 0.078,-11.99996 0.235,-14.30855" /><path
         id="path36"
         style="fill:#21234e;fill-opacity:1;fill-rule:nonzero;stroke:none"
         d="M 488.926,7.86719 487.832,4.19141 C 485.855,2.58594 484.082,1.48828 482.504,0.898438 480.93,0.300781 478.965,0 476.609,0 c -3.359,0 -6.324,0.820313 -8.906,2.44141 -2.023,1.3125 -3.738,3.05078 -5.148,5.20703 -1.41,2.16015 -2.492,4.50386 -3.254,7.02736 -1.153,3.8086 -1.731,7.9531 -1.731,12.414 0,7.6485 1.703,13.8946 5.114,18.7344 3.41,4.8438 8.226,7.2617 14.445,7.2617 2.137,0 4.055,-0.2421 5.758,-0.7226 1.699,-0.4883 3.672,-1.3477 5.922,-2.5899 l 0.117,-0.4726 c -0.254,-1.1367 -0.453,-2.5742 -0.594,-4.293 -0.238,-2.7422 -0.387,-5.2812 -0.449,-7.6133 h -1.856 c -0.031,2.6719 -0.105,4.8047 -0.23,6.4063 -1.067,1.7031 -2.262,2.9687 -3.574,3.8086 -1.325,0.8359 -3.016,1.2578 -5.067,1.2578 -3.722,0 -6.699,-1.8047 -8.929,-5.4102 -2.235,-3.6015 -3.348,-8.6328 -3.348,-15.0898 0,-3.9102 0.379,-7.3203 1.125,-10.2305 0.754,-2.9101 1.754,-5.3203 3.008,-7.2304 1.25,-1.9063 2.508,-3.29302 3.769,-4.16411 1.731,-1.16797 3.821,-1.75 6.27,-1.75 1.613,0 3.137,0.28125 4.582,0.83594 1.441,0.55859 3.004,1.51953 4.699,2.875 l 0.594,-0.83594" /><path
         id="path38"
         style="fill:#21234e;fill-opacity:1;fill-rule:nonzero;stroke:none"
         d="m 492.723,26.1445 c 0,4.4414 0.437,8.3125 1.316,11.6172 0.879,3.2969 2.133,6.1055 3.762,8.4102 1.629,2.3047 3.402,3.9648 5.32,4.9844 2.449,1.289 5.121,1.9296 8.02,1.9296 2.879,0 5.492,-0.6171 7.836,-1.8515 1.742,-0.9453 3.273,-2.3125 4.613,-4.0977 1.34,-1.7851 2.355,-3.6133 3.055,-5.4765 0.695,-1.875 1.222,-3.9219 1.578,-6.1563 0.351,-2.2344 0.531,-4.6953 0.531,-7.3906 0,-4.5664 -0.516,-8.8008 -1.543,-12.711 C 526.449,12.4922 525.34,9.91016 523.875,7.64844 522.414,5.39453 520.742,3.65625 518.883,2.44141 516.316,0.820313 513.387,0 510.098,0 c -3.563,0 -6.621,0.992188 -9.176,2.96875 -2.555,1.98047 -4.559,4.89844 -6.016,8.76175 -1.453,3.8554 -2.183,8.6601 -2.183,14.414 m 7.312,2.1485 c 0,-5.6563 0.504,-10.3321 1.516,-14.0352 1.015,-3.7031 2.312,-6.3203 3.894,-7.85155 1.582,-1.52344 3.45,-2.29297 5.602,-2.29297 1.996,0 3.777,0.73047 5.351,2.1875 1.575,1.45313 2.813,3.92192 3.704,7.39452 0.894,3.4688 1.343,7.6797 1.343,12.6328 0,3.3985 -0.246,6.5039 -0.726,9.3242 -0.485,2.8125 -1.176,5.2071 -2.078,7.1875 -0.899,1.9766 -1.965,3.4883 -3.192,4.5313 -1.222,1.043 -2.851,1.5664 -4.879,1.5664 -2.308,0 -4.273,-0.832 -5.898,-2.4922 -1.621,-1.664 -2.801,-4.1211 -3.539,-7.3789 -0.731,-3.2461 -1.098,-6.8398 -1.098,-10.7734 m 8.754,27.3789 h -2.871 l 5.578,10.3828 c 0.809,1.5 1.453,2.4766 1.938,2.9297 0.48,0.4453 1.031,0.6719 1.648,0.6719 0.82,0 1.488,-0.3711 1.988,-1.1133 0.508,-0.7383 0.762,-1.6289 0.762,-2.6797 0,-0.6992 -0.141,-1.3399 -0.426,-1.9258 -0.457,-0.8984 -1.258,-1.8398 -2.394,-2.8398 l -6.223,-5.4258" /><path
         id="path40"
         style="fill:#21234e;fill-opacity:1;fill-rule:nonzero;stroke:none"
         d="m 532.598,49.1914 v 2.9883 c 0.367,0 1.629,-0.0547 3.8,-0.1484 1.063,-0.0469 2.559,-0.0743 4.512,-0.0743 1.66,0 3.082,0.0508 4.27,0.1485 1.965,0.1211 3.586,0.1836 4.863,0.1836 2.484,0 4.34,-0.2735 5.578,-0.8164 1.238,-0.5508 2.289,-1.6875 3.16,-3.4063 0.864,-1.7266 1.305,-3.8203 1.305,-6.3008 0,-2.9375 -0.594,-5.6093 -1.781,-8.0117 -1.188,-2.4023 -3.016,-4.3086 -5.481,-5.7148 0.391,-1.0938 0.844,-2.211 1.352,-3.3477 0.508,-1.1445 0.804,-1.8359 0.89,-2.0781 0.086,-0.2422 0.176,-0.4727 0.27,-0.6914 l 3.684,-8.4844 c 0.976,-2.2617 1.507,-3.46875 1.585,-3.64062 C 561.797,7.375 562.52,5.9375 562.789,5.5 c 0.274,-0.4375 0.531,-0.74219 0.785,-0.91016 0.25,-0.17187 0.754,-0.26562 1.496,-0.28906 V 1.27734 c -2.437,0.09375 -4.203,0.14454 -5.293,0.14454 -1.265,0 -2.527,-0.05079 -3.773,-0.14454 -0.082,0.53907 -0.27,1.22657 -0.566,2.07422 L 550.352,16.207 c -1.454,3.6875 -2.688,6.586 -3.704,8.7032 -0.507,1.0703 -0.996,1.8671 -1.468,2.3945 l 0.261,1.207 c 1.899,-0.0976 3.329,0.1992 4.297,0.8906 0.965,0.6915 1.782,1.9297 2.446,3.7149 0.664,1.7851 0.996,3.7812 0.996,5.9883 0,2.2343 -0.348,4.0898 -1.047,5.5703 -0.692,1.4844 -1.559,2.5156 -2.586,3.0937 -0.664,0.3672 -1.852,0.5508 -3.559,0.5508 -0.761,0 -1.511,-0.0976 -2.258,-0.293 -0.046,-0.875 -0.093,-2.8398 -0.14,-5.8984 -0.098,-6.8672 -0.145,-11.457 -0.145,-13.7656 0,-3.6367 0.028,-7.5 0.071,-11.5781 0.058,-4.9961 0.109,-7.83989 0.144,-8.51567 0.047,-1.36328 0.137,-2.24609 0.262,-2.65625 0.062,-0.19531 0.168,-0.375 0.308,-0.53125 0.141,-0.15625 0.368,-0.28515 0.688,-0.38672 0.316,-0.09375 1.234,-0.16406 2.754,-0.21484 V 1.27734 c -2.707,0.14454 -5.445,0.21875 -8.215,0.21875 -2.465,0 -4.754,-0.07421 -6.859,-0.21875 v 3.20313 c 1.804,0.09375 2.871,0.23437 3.203,0.39844 0.191,0.07422 0.332,0.1914 0.418,0.36718 0.086,0.17188 0.156,0.50782 0.203,1.01954 0.109,0.94531 0.187,2.375 0.234,4.30077 l 0.196,10.6289 v 13.5039 l -0.102,7.6836 c -0.031,3.0352 -0.129,4.8555 -0.281,5.461 -0.082,0.2695 -0.199,0.4765 -0.356,0.621 -0.383,0.2891 -1.55,0.5313 -3.515,0.7266" /><path
         id="path42"
         style="fill:#21234e;fill-opacity:1;fill-rule:nonzero;stroke:none"
         d="m 568.867,1.27734 v 1.75 c 0.129,0.11719 0.348,0.3125 0.664,0.57813 0.606,0.51172 1.16,1.04687 1.66,1.60547 0.176,3.2539 0.262,8.52736 0.262,15.83986 v 5.9687 c 0,3.2032 -0.039,7.8985 -0.117,14.0938 -0.047,3.418 -0.148,5.5976 -0.305,6.5508 -0.054,0.2187 -0.113,0.3867 -0.191,0.5117 -0.129,0.1914 -0.328,0.3359 -0.594,0.4336 -0.269,0.0937 -1.266,0.3164 -2.992,0.6562 v 2.9492 l 8.617,-0.2226 c 1.012,0 2.918,0.0664 5.723,0.1836 2.027,0.0781 3.64,0.1133 4.863,0.1133 2.805,0 5.043,-0.2657 6.734,-0.7852 1.68,-0.5234 3.145,-1.3555 4.399,-2.5117 1.25,-1.1524 2.308,-2.5156 3.164,-4.0977 0.867,-1.5742 1.519,-3.2734 1.961,-5.0976 0.742,-3.0586 1.113,-6.4063 1.113,-10.043 0,-4.6406 -0.547,-8.7773 -1.66,-12.418 -1.105,-3.6445 -2.629,-6.6875 -4.57,-9.14449 -1.934,-2.44922 -4.035,-4.21485 -6.301,-5.29297 -2.258,-1.08203 -4.988,-1.6211 -8.192,-1.6211 l -7.046,0.21875 z m 9.492,4.44141 c 1.481,-0.33594 2.887,-0.50781 4.227,-0.50781 2.102,0 3.977,0.33594 5.605,1.01953 1.2,0.51172 2.25,1.25 3.157,2.21875 0.902,0.97266 1.765,2.41018 2.597,4.29688 0.832,1.8945 1.477,4.1523 1.938,6.7734 0.453,2.6211 0.687,5.4532 0.687,8.4805 0,2.7695 -0.234,5.4414 -0.687,8.0352 -0.461,2.582 -1.215,4.8437 -2.254,6.7851 -1.047,1.9414 -2.371,3.3516 -3.969,4.2227 -1.601,0.875 -4.019,1.3125 -7.258,1.3125 -1.222,0 -2.562,-0.1602 -4.043,-0.4727 -0.156,-3.4492 -0.234,-9.9414 -0.234,-19.4805 v -8.375 c 0,-7.2304 0.078,-11.99996 0.234,-14.30855" /><path
         id="path44"
         style="fill:#21234e;fill-opacity:1;fill-rule:nonzero;stroke:none"
         d="m 608.816,26.1445 c 0,4.4414 0.442,8.3125 1.317,11.6172 0.879,3.3008 2.137,6.1055 3.765,8.4102 1.629,2.3047 3.403,3.9726 5.317,4.9883 2.449,1.2851 5.125,1.9257 8.019,1.9257 2.879,0 5.493,-0.6171 7.832,-1.8554 1.747,-0.9414 3.282,-2.3086 4.622,-4.0938 1.335,-1.7851 2.351,-3.6133 3.046,-5.4765 0.7,-1.875 1.231,-3.9258 1.582,-6.1563 0.352,-2.2344 0.536,-4.6953 0.536,-7.3945 0,-4.5625 -0.52,-8.7969 -1.547,-12.7031 -0.758,-2.9141 -1.871,-5.49614 -3.336,-7.75786 C 638.508,5.39453 636.844,3.65625 634.977,2.44141 632.41,0.816406 629.484,0 626.188,0 c -3.555,0 -6.618,0.992188 -9.168,2.96875 -2.559,1.98047 -4.563,4.89844 -6.016,8.75785 -1.465,3.8593 -2.188,8.664 -2.188,14.4179 m 7.313,2.1485 c 0,-5.6563 0.508,-10.3321 1.519,-14.0352 1.008,-3.707 2.309,-6.3203 3.895,-7.84764 1.582,-1.52735 3.445,-2.29688 5.598,-2.29688 1.996,0 3.781,0.73047 5.351,2.1875 1.574,1.45313 2.813,3.92192 3.703,7.39452 0.895,3.4688 1.34,7.6758 1.34,12.6328 0,3.3985 -0.234,6.5039 -0.722,9.3242 -0.485,2.8125 -1.172,5.211 -2.075,7.1875 -0.906,1.9766 -1.968,3.4883 -3.195,4.5313 -1.227,1.043 -2.852,1.5703 -4.879,1.5703 -2.309,0 -4.277,-0.8359 -5.894,-2.4961 -1.625,-1.664 -2.805,-4.1211 -3.536,-7.3711 -0.738,-3.2578 -1.105,-6.8476 -1.105,-10.7812" /><path
         id="path46"
         style="fill:#21234e;fill-opacity:1;fill-rule:nonzero;stroke:none"
         d="m 650.547,1.27734 v 1.71485 c 0.836,0.75 1.531,1.5 2.09,2.2539 0.093,1.19141 0.156,2.64454 0.187,4.3711 0.063,3.53911 0.094,9.98441 0.094,19.33201 0,2.4961 -0.039,6.3946 -0.117,11.6875 -0.047,4.0781 -0.133,6.4063 -0.262,6.9922 -0.082,0.3633 -0.199,0.6172 -0.355,0.7617 -0.332,0.3399 -1.52,0.6055 -3.563,0.8008 v 3.0274 c 0.352,0 0.715,-0.0196 1.094,-0.0391 l 3.277,-0.1445 c 1.078,-0.0274 2.41,-0.0391 4.012,-0.0391 1.582,0 2.82,0.0273 3.726,0.0742 2.278,0.1485 3.766,0.2188 4.458,0.2188 2.617,0 4.625,-0.418 6.042,-1.2383 1.418,-0.8242 2.458,-2.0235 3.114,-3.5899 0.656,-1.5625 0.98,-3.3164 0.98,-5.2617 0,-2.0859 -0.371,-4.0234 -1.125,-5.8203 -0.754,-1.8008 -1.711,-3.1914 -2.883,-4.1914 -0.703,-0.6055 -2.246,-1.4141 -4.648,-2.4336 2.879,-0.5351 4.879,-1.2422 6.012,-2.1133 1.129,-0.8789 2.035,-2.2461 2.715,-4.0976 0.683,-1.8594 1.027,-3.9297 1.027,-6.2071 0,-2.4023 -0.352,-4.582 -1.051,-6.539 -0.691,-1.95315 -1.594,-3.62112 -2.691,-5.00393 -1.098,-1.38672 -2.364,-2.48438 -3.785,-3.29688 -1.426,-0.8125 -3.207,-1.21875 -5.34,-1.21875 l -7.973,0.21875 c -1.285,0 -2.965,-0.07421 -5.035,-0.21875 m 9,29.92966 1.371,-0.039 c 1.074,0 2.07,0.1328 2.988,0.4062 0.918,0.2656 1.668,0.7305 2.235,1.3985 0.57,0.664 1.047,1.664 1.433,2.9843 0.391,1.3243 0.582,2.8438 0.582,4.5703 0,1.7461 -0.222,3.2344 -0.66,4.461 -0.449,1.2265 -1.023,2.0976 -1.734,2.6211 -0.715,0.5195 -1.782,0.7812 -3.207,0.7812 -1.028,0 -1.961,-0.0976 -2.801,-0.289 -0.094,-1.7461 -0.149,-3.7618 -0.164,-6.043 l -0.043,-5.6445 z m 0.09,-25.85153 c 0.523,-0.17188 1.504,-0.25391 2.941,-0.25391 1.969,0 3.551,0.98438 4.762,2.96875 1.211,1.98049 1.816,4.80859 1.816,8.49999 0,2.6211 -0.316,4.7461 -0.953,6.3711 -0.633,1.625 -1.469,2.7734 -2.515,3.4375 -1.043,0.6719 -2.485,1.0078 -4.321,1.0078 -0.648,0 -1.254,-0.0508 -1.82,-0.1523 V 10.6367 l 0.043,-4.33592 c 0,-0.11719 0.015,-0.4375 0.047,-0.94531" /><path
         id="path48"
         style="fill:#21234e;fill-opacity:1;fill-rule:nonzero;stroke:none"
         d="m 680.332,1.27734 v 3.02344 c 1.285,0.14453 2.047,0.26953 2.293,0.37891 0.246,0.10937 0.453,0.28125 0.625,0.51562 0.176,0.23047 0.355,0.58985 0.535,1.08594 0.184,0.49609 0.727,2.35156 1.625,5.55465 0.414,1.5039 1.207,4.4766 2.379,8.9219 l 6.195,23.4492 2.086,8.2578 h 3.371 l 10.614,-38.0078 1.468,-4.98825 0.954,-3.35156 c 0.156,-0.4336 0.304,-0.75 0.449,-0.94531 0.14,-0.19141 0.304,-0.33985 0.484,-0.4336 0.184,-0.10156 0.645,-0.18359 1.391,-0.2539 0.234,-0.05079 0.586,-0.11329 1.047,-0.1836 V 1.27734 l -6.602,0.21485 -8.332,-0.21485 v 3.02344 c 1.914,0.1211 2.992,0.28516 3.242,0.48828 0.246,0.21094 0.367,0.55469 0.367,1.03516 0,0.61328 -0.183,1.60937 -0.55,2.98828 l -2.039,8.0117 h -12.2 L 688.688,12.457 C 687.898,9.10547 687.5,7.01953 687.5,6.19141 c 0,-0.58203 0.129,-0.9961 0.383,-1.23828 0.379,-0.33594 1.512,-0.5586 3.394,-0.65235 V 1.27734 l -5.484,0.21485 z m 10.492,19.69926 c 1.489,-0.0743 3.176,-0.1094 5.055,-0.1094 1.824,0 3.453,0.0351 4.894,0.1094 l -5.082,18.789 -4.867,-18.789" /><path
         id="path50"
         style="fill:#a81835;fill-opacity:1;fill-rule:nonzero;stroke:none"
         d="m 449.063,350.898 c -6.04,7.508 -12.977,14.27 -20.665,20.098 l -70.941,-177.691 91.606,157.593" /><path
         id="path52"
         style="fill:#a81835;fill-opacity:1;fill-rule:nonzero;stroke:none"
         d="m 403.105,385.625 c -8.937,3.766 -18.445,6.445 -28.347,7.902 l -17.297,-200.222 45.644,192.32" /><path
         id="path54"
         style="fill:#a81835;fill-opacity:1;fill-rule:nonzero;stroke:none"
         d="m 472.539,300.773 c -1.828,9.141 -4.73,17.887 -8.559,26.129 L 357.457,193.305 472.539,300.773" /><path
         id="path56"
         style="fill:#a81835;fill-opacity:1;fill-rule:nonzero;stroke:none"
         d="m 471.348,249.543 c 1.988,7.984 3.132,16.293 3.379,24.832 l -117.27,-81.074 113.891,56.242" /><path
         id="path58"
         style="fill:#a81835;fill-opacity:1;fill-rule:nonzero;stroke:none"
         d="m 253.082,331.277 c -4.195,-8.129 -7.469,-16.804 -9.676,-25.898 L 357.457,193.305 253.082,331.277" /><path
         id="path60"
         style="fill:#a81835;fill-opacity:1;fill-rule:nonzero;stroke:none"
         d="m 240.125,278.906 c -0.004,-0.371 -0.027,-0.742 -0.027,-1.113 0,-8.262 0.875,-16.32 2.5,-24.102 l 114.859,-60.382 -117.332,85.597" /><path
         id="path62"
         style="fill:#a81835;fill-opacity:1;fill-rule:nonzero;stroke:none"
         d="m 290.625,373.965 c -7.961,-5.516 -15.203,-11.988 -21.566,-19.25 l 88.402,-161.41 -66.836,180.66" /><path
         id="path64"
         style="fill:#a81835;fill-opacity:1;fill-rule:nonzero;stroke:none"
         d="m 345.254,394.176 c -9.988,-1.031 -19.598,-3.313 -28.684,-6.68 l 40.887,-194.187 -12.203,200.867" /><path
         id="path66"
         style="fill:#21234e;fill-opacity:1;fill-rule:nonzero;stroke:none"
         d="m 357.414,168.855 c -27.652,0 -50.152,22.434 -50.152,50.004 0,27.579 22.5,50.012 50.152,50.012 27.652,0 50.152,-22.433 50.152,-50.012 0,-27.57 -22.5,-50.004 -50.152,-50.004" /><path
         id="path68"
         style="fill:#f3b617;fill-opacity:1;fill-rule:nonzero;stroke:none"
         d="m 357.414,260.469 c 23.051,0 41.731,-18.629 41.731,-41.61 0,-22.98 -18.68,-41.605 -41.731,-41.605 -23.051,0 -41.734,18.625 -41.734,41.605 0,22.981 18.683,41.61 41.734,41.61 m 0,16.801 c -32.301,0 -58.578,-26.204 -58.578,-58.411 0,-32.207 26.277,-58.402 58.578,-58.402 32.301,0 58.578,26.195 58.578,58.402 0,32.207 -26.277,58.411 -58.578,58.411" /><path
         id="path70"
         style="fill:#21234e;fill-opacity:1;fill-rule:nonzero;stroke:none"
         d="M 357.402,425.195 238.773,362.676 V 171.609 L 357.402,109.09 476.051,171.609 V 362.676 Z M 464.727,262.922 c -0.004,-6.629 -1.34,-12.684 -2.981,-13.52 -1.641,-0.847 -2.973,-1.531 -2.973,-1.531 l -84.132,-44.328 c -6.864,-3.621 -12.891,-9.695 -17.227,-16.805 -4.34,7.11 -10.363,13.184 -17.23,16.805 l -84.133,44.328 -2.961,1.492 c -1.637,0.821 -2.969,6.86 -2.977,13.485 -0.008,5.152 -0.011,11.011 -0.011,15.523 0,59.094 48.043,107 107.312,107 59.262,0 107.313,-47.906 107.313,-107 v -15.449" /><path
         id="path72"
         style="fill:#21234e;fill-opacity:1;fill-rule:nonzero;stroke:none"
         d="m 399.145,218.859 c 0,-22.976 -18.688,-41.605 -41.731,-41.605 -23.047,0 -41.734,18.629 -41.734,41.605 0,22.981 18.687,41.61 41.734,41.61 23.043,0 41.731,-18.629 41.731,-41.61" /><path
         id="path74"
         style="fill:#ffffff;fill-opacity:1;fill-rule:nonzero;stroke:none"
         d="m 334.234,192.309 -84.132,44.336 v -58.231 l 101.652,-53.566 v 38.472 c 0,10.91 -7.844,23.895 -17.52,28.989 m 46.36,0 c -9.676,-5.094 -17.52,-18.079 -17.52,-28.989 v -38.472 l 101.653,53.566 v 58.231 l -84.133,-44.336" /><path
         id="path76"
         style="fill:#21234e;fill-opacity:1;fill-rule:nonzero;stroke:none"
         d="m 427.215,39.7617 c -0.445,1.8438 -1.102,3.5586 -1.961,5.1328 -0.863,1.5821 -1.922,2.9453 -3.172,4.0977 -1.254,1.1523 -2.719,1.9883 -4.41,2.5117 -1.695,0.5195 -3.934,0.7891 -6.723,0.7891 -1.234,0 -2.855,-0.0391 -4.863,-0.1172 -2.82,-0.1172 -4.731,-0.1836 -5.746,-0.1836 l -8.59,0.2226 v -2.9492 c 1.805,-0.3672 2.781,-0.582 2.945,-0.6601 0.297,-0.0938 0.512,-0.2422 0.637,-0.4297 0.078,-0.125 0.145,-0.3281 0.191,-0.625 0.161,-0.9922 0.27,-3.2617 0.332,-6.8047 l 0.09,-10.5625 v -3.8555 -5.2812 c 0,-7.3086 -0.082,-12.58206 -0.254,-15.83596 -0.507,-0.5586 -1.062,-1.09766 -1.668,-1.60156 -0.312,-0.26954 -0.535,-0.46485 -0.664,-0.58204 v -1.75 l 7.196,0.21875 7.054,-0.21875 c 3.192,0 5.922,0.53907 8.188,1.6211 2.258,1.07812 4.359,2.84375 6.297,5.29687 1.937,2.44919 3.461,5.49609 4.574,9.14059 1.105,3.6368 1.66,7.7774 1.66,12.418 0,3.6367 -0.379,6.9766 -1.113,10.0078 m -6.852,-20.2422 c -0.453,-2.6211 -1.097,-4.8789 -1.925,-6.7734 -0.833,-1.8906 -1.696,-3.32813 -2.598,-4.29297 -0.902,-0.97266 -1.965,-1.71094 -3.184,-2.22266 -1.613,-0.68359 -3.472,-1.01953 -5.578,-1.01953 -1.34,0 -2.75,0.17187 -4.226,0.50781 -0.153,2.30859 -0.235,7.07425 -0.235,14.30855 v 5.918 c 0.981,0.1406 2.207,0.211 3.692,0.211 1.711,0 3.105,-0.1368 4.199,-0.4024 0.492,-0.125 0.836,-0.4219 1.023,-0.9101 0.254,-0.6563 0.371,-2.3868 0.352,-5.2071 h 2.043 l -0.094,7.9727 0.094,8.0078 h -1.918 c -0.035,-2.1602 -0.141,-3.7031 -0.336,-4.6211 -0.074,-0.3672 -0.192,-0.6172 -0.344,-0.7656 -0.148,-0.1485 -0.652,-0.2305 -1.504,-0.25 -2.265,-0.1016 -3.578,-0.1485 -3.945,-0.1485 -1.133,0 -2.215,0.0625 -3.262,0.1719 v 0.1797 l 0.098,12.0937 c 0.015,2.0391 0.062,3.9024 0.137,5.6055 1.476,0.3125 2.82,0.4766 4.043,0.4766 3.242,0 5.656,-0.4414 7.25,-1.3125 1.585,-0.875 2.91,-2.2852 3.96,-4.2305 1.055,-1.9375 1.805,-4.1992 2.258,-6.7851 0.453,-2.5899 0.676,-5.2618 0.676,-8.0313 0,-3.0312 -0.223,-5.8594 -0.676,-8.4805" /></g></g></svg>